<svg width="297" height="99" viewBox="0 0 297 99" fill="none" xmlns="http://www.w3.org/2000/svg">
<g clip-path="url(#clip0_215_10289)">
<path d="M273.349 0.000191573H23.6646C22.7544 0.000191573 21.8552 0.000191574 20.9475 0.00514157C20.1877 0.0100916 19.4339 0.0244713 18.6667 0.0365741C17.0001 0.056131 15.3375 0.20234 13.6932 0.473931C12.0512 0.751435 10.4606 1.27461 8.97527 2.02576C7.49176 2.78326 6.13623 3.76756 4.95786 4.94294C3.77331 6.11502 2.7859 7.46978 2.03358 8.95514C1.2792 10.4375 0.756102 12.0261 0.482367 13.6659C0.206029 15.3036 0.057329 16.9602 0.0376015 18.6208C0.014569 19.3796 0.0121367 20.141 0 20.8999V78.1077C0.0121367 78.8762 0.014569 79.6207 0.0376015 80.3894C0.057335 82.05 0.206035 83.7065 0.482367 85.3441C0.755346 86.9849 1.27847 88.5743 2.03358 90.0573C2.78555 91.5378 3.77311 92.8871 4.95786 94.0527C6.13176 95.2333 7.48817 96.2182 8.97527 96.9699C10.4606 97.7231 12.051 98.2494 13.6932 98.5312C15.3377 98.8006 17.0002 98.9469 18.6667 98.9688C19.4339 98.9856 20.1877 98.9952 20.9475 98.9952C21.8552 99.0002 22.7545 99.0002 23.6646 99.0002H273.349C274.241 99.0002 275.147 99.0002 276.039 98.9952C276.795 98.9952 277.571 98.9856 278.327 98.9688C279.991 98.948 281.65 98.8017 283.291 98.5312C284.939 98.2474 286.535 97.7213 288.027 96.9699C289.513 96.2178 290.868 95.2329 292.041 94.0527C293.223 92.8825 294.212 91.5342 294.974 90.0573C295.723 88.5732 296.241 86.9839 296.51 85.3441C296.787 83.7063 296.941 82.0501 296.971 80.3894C296.981 79.6207 296.981 78.8762 296.981 78.1077C297 77.2086 297 76.3143 297 75.4006V23.6021C297 22.6957 297 21.7966 296.981 20.8999C296.981 20.141 296.981 19.3796 296.971 18.6207C296.941 16.9599 296.787 15.3037 296.51 13.6658C296.241 12.0269 295.722 10.4385 294.974 8.95504C293.442 5.9778 291.012 3.55435 288.027 2.02553C286.535 1.27622 284.939 0.753187 283.291 0.473709C281.65 0.200921 279.991 0.0546608 278.327 0.0362276C277.571 0.0241496 276.795 0.00964607 276.039 0.00481982C275.147 -0.000130177 274.241 -0.000130177 273.349 -0.000130177V0.000191573Z" fill="#A6A6A6"/>
<path d="M20.9599 96.8344C20.2037 96.8344 19.4657 96.8247 18.7155 96.8079C17.1612 96.7877 15.6106 96.6528 14.0763 96.4042C12.6457 96.1585 11.2598 95.7015 9.9644 95.0482C8.68084 94.4003 7.51013 93.5507 6.49712 92.5321C5.46945 91.5254 4.61386 90.3579 3.96427 89.0757C3.30752 87.7853 2.85301 86.402 2.61657 84.9742C2.36124 83.44 2.2231 81.8886 2.20333 80.3336C2.18759 79.8116 2.16699 78.0736 2.16699 78.0736V20.8997C2.16699 20.8997 2.18893 19.1885 2.20345 18.6858C2.22238 17.1331 2.35972 15.5842 2.61429 14.0524C2.85116 12.6206 3.30603 11.2334 3.96313 9.93868C4.61033 8.65741 5.46117 7.489 6.48265 6.47876C7.50299 5.45891 8.67744 4.60499 9.96319 3.94814C11.2557 3.29693 12.6389 2.84311 14.0666 2.60189C15.6059 2.35084 17.1619 2.21511 18.7216 2.19584L20.9611 2.16562H276.027L278.294 2.19706C279.839 2.21537 281.381 2.34989 282.906 2.59947C284.348 2.84371 285.746 3.3007 287.053 3.9554C289.629 5.27914 291.725 7.37343 293.047 9.94472C293.694 11.2305 294.141 12.6064 294.375 14.0258C294.633 15.5702 294.777 17.1313 294.807 18.6966C294.814 19.3976 294.814 20.1505 294.814 20.8997C294.834 21.8279 294.834 22.7113 294.834 23.6019V75.4004C294.834 76.2996 294.834 77.1769 294.814 78.0615C294.814 78.8664 294.814 79.6037 294.804 80.3625C294.775 81.8999 294.633 83.4332 294.38 84.9499C294.148 86.3881 293.696 87.7821 293.04 89.0832C292.386 90.3514 291.535 91.5088 290.519 92.5128C289.505 93.5369 288.332 94.3914 287.046 95.0435C285.742 95.7018 284.347 96.1605 282.906 96.4042C281.372 96.6541 279.821 96.789 278.267 96.8079C277.54 96.8247 276.779 96.8344 276.039 96.8344L273.349 96.8393L20.9599 96.8344Z" fill="black"/>
<path d="M61.4752 50.2435C61.5019 48.1777 62.0521 46.1522 63.0748 44.3555C64.0974 42.5587 65.5591 41.0491 67.324 39.9671C66.2029 38.3704 64.7237 37.0563 63.0042 36.1293C61.2846 35.2023 59.372 34.6878 57.4182 34.6269C53.2504 34.1906 49.2099 37.1138 47.0861 37.1138C44.9212 37.1138 41.6512 34.6702 38.13 34.7424C35.8524 34.8158 33.6326 35.4763 31.6871 36.6595C29.7416 37.8427 28.1365 39.5082 27.0284 41.4939C22.2283 49.7813 25.8088 61.9609 30.4069 68.6597C32.7074 71.94 35.396 75.6041 38.9141 75.4741C42.3567 75.3317 43.6424 73.285 47.7979 73.285C51.9149 73.285 53.1212 75.4741 56.7106 75.3915C60.4047 75.3317 62.7321 72.0967 64.9519 68.7854C66.6049 66.4481 67.8768 63.8649 68.7206 61.1314C66.5744 60.2263 64.7429 58.7111 63.4545 56.7749C62.1661 54.8387 61.4777 52.5672 61.4752 50.2435V50.2435Z" fill="white"/>
<path d="M54.6955 30.2228C56.7097 27.8116 57.702 24.7125 57.4617 21.5835C54.3845 21.9058 51.542 23.3724 49.5006 25.6911C48.5025 26.8238 47.7381 28.1416 47.251 29.5691C46.7639 30.9966 46.5638 32.5058 46.662 34.0105C48.2011 34.0263 49.7238 33.6936 51.1154 33.0375C52.5069 32.3815 53.731 31.419 54.6955 30.2228Z" fill="white"/>
<path d="M104.992 67.1707H93.2441L90.4228 75.4779H85.4468L96.5743 44.7433H101.744L112.872 75.4779H107.811L104.992 67.1707ZM94.4608 63.3373H103.773L99.1824 49.8553H99.054L94.4608 63.3373Z" fill="white"/>
<path d="M136.904 64.2745C136.904 71.2379 133.166 75.7117 127.526 75.7117C126.097 75.7863 124.676 75.4581 123.426 74.7647C122.176 74.0714 121.146 73.0409 120.456 71.7913H120.349V82.8902H115.737V53.0693H120.201V56.7963H120.286C121.008 55.5527 122.055 54.5276 123.315 53.83C124.575 53.1325 126.001 52.7886 127.441 52.8349C133.144 52.8349 136.904 57.3305 136.904 64.2745ZM132.163 64.2745C132.163 59.7379 129.812 56.7553 126.225 56.7553C122.7 56.7553 120.33 59.8007 120.33 64.2745C120.33 68.7895 122.7 71.8131 126.225 71.8131C129.812 71.8131 132.163 68.8523 132.163 64.2745Z" fill="white"/>
<path d="M161.636 64.2745C161.636 71.2379 157.898 75.7117 152.258 75.7117C150.829 75.7862 149.408 75.458 148.158 74.7647C146.908 74.0714 145.878 73.0409 145.188 71.7913H145.081V82.8902H140.469V53.0693H144.933V56.7963H145.018C145.74 55.5527 146.787 54.5276 148.047 53.83C149.307 53.1325 150.733 52.7886 152.173 52.8349C157.876 52.8349 161.636 57.3305 161.636 64.2745ZM156.895 64.2745C156.895 59.7378 154.544 56.7552 150.956 56.7552C147.432 56.7552 145.062 59.8007 145.062 64.2745C145.062 68.7895 147.432 71.8131 150.956 71.8131C154.544 71.8131 156.895 68.8523 156.895 64.2745H156.895Z" fill="white"/>
<path d="M177.982 66.9145C178.324 69.9624 181.293 71.9635 185.35 71.9635C189.238 71.9635 192.035 69.9623 192.035 67.2141C192.035 64.8285 190.348 63.4001 186.354 62.4212L182.359 61.4617C176.7 60.0985 174.072 57.4591 174.072 53.1762C174.072 47.8733 178.707 44.2309 185.287 44.2309C191.8 44.2309 196.264 47.8733 196.415 53.1762H191.759C191.48 50.1091 188.937 48.2577 185.222 48.2577C181.506 48.2577 178.963 50.1308 178.963 52.8572C178.963 55.0301 180.587 56.3087 184.56 57.2874L187.956 58.1189C194.279 59.6102 196.907 62.1432 196.907 66.6388C196.907 72.3888 192.314 75.9901 185.008 75.9901C178.173 75.9901 173.558 72.4734 173.26 66.9143L177.982 66.9145Z" fill="white"/>
<path d="M206.861 47.7689V53.0718H211.134V56.7142H206.861V69.0675C206.861 70.9866 207.717 71.8809 209.595 71.8809C210.102 71.872 210.609 71.8365 211.112 71.7744V75.3951C210.268 75.5525 209.409 75.6237 208.55 75.6078C204.001 75.6078 202.227 73.9038 202.227 69.5581V56.7142H198.959V53.0718H202.227V47.7689H206.861Z" fill="white"/>
<path d="M213.609 64.277C213.609 57.2266 217.773 52.7963 224.266 52.7963C230.781 52.7963 234.926 57.2265 234.926 64.277C234.926 71.3467 230.803 75.7577 224.266 75.7577C217.732 75.7577 213.609 71.3467 213.609 64.277ZM230.226 64.277C230.226 59.4406 228.004 56.5861 224.266 56.5861C220.529 56.5861 218.309 59.4624 218.309 64.277C218.309 69.1327 220.529 71.9655 224.266 71.9655C228.004 71.9655 230.226 69.1327 230.226 64.277H230.226Z" fill="white"/>
<path d="M238.729 53.0692H243.128V56.8831H243.235C243.533 55.692 244.232 54.6393 245.217 53.902C246.201 53.1647 247.41 52.7878 248.64 52.8347C249.171 52.8328 249.702 52.8904 250.22 53.0063V57.3085C249.549 57.1041 248.849 57.0102 248.148 57.0306C247.478 57.0035 246.81 57.1213 246.19 57.376C245.57 57.6306 245.012 58.016 244.555 58.5058C244.099 58.9956 243.754 59.5781 243.544 60.2134C243.335 60.8486 243.266 61.5216 243.341 62.186V75.4771H238.729L238.729 53.0692Z" fill="white"/>
<path d="M271.486 68.8983C270.866 72.9661 266.893 75.7577 261.811 75.7577C255.274 75.7577 251.216 71.3902 251.216 64.3833C251.216 57.3547 255.296 52.7963 261.617 52.7963C267.834 52.7963 271.743 57.055 271.743 63.8492V65.4251H255.872V65.703C255.799 66.5277 255.903 67.3585 256.176 68.1402C256.45 68.9219 256.887 69.6366 257.458 70.2369C258.03 70.8372 258.723 71.3094 259.492 71.622C260.261 71.9346 261.088 72.0805 261.917 72.05C263.007 72.1519 264.101 71.9001 265.036 71.3323C265.971 70.7644 266.697 69.9108 267.107 68.8983L271.486 68.8983ZM255.894 62.2105H267.128C267.17 61.469 267.057 60.7269 266.797 60.0309C266.537 59.335 266.136 58.7 265.619 58.166C265.101 57.632 264.478 57.2104 263.79 56.9277C263.101 56.645 262.361 56.5073 261.617 56.5233C260.866 56.5188 260.121 56.6627 259.426 56.9467C258.731 57.2307 258.099 57.6491 257.567 58.1779C257.035 58.7066 256.613 59.3352 256.326 60.0273C256.039 60.7195 255.892 61.4615 255.894 62.2105V62.2105Z" fill="white"/>
<path d="M93.8825 21.61C94.8495 21.5408 95.8198 21.6865 96.7235 22.0365C97.6272 22.3865 98.4418 22.9322 99.1084 23.6342C99.775 24.3362 100.277 25.1769 100.578 26.0958C100.88 27.0147 100.973 27.9889 100.851 28.948C100.851 33.6659 98.2938 36.3779 93.8825 36.3779H88.5332V21.61H93.8825ZM90.8333 34.2894H93.6255C94.3165 34.3306 95.008 34.2176 95.6497 33.9587C96.2914 33.6998 96.8671 33.3014 97.3349 32.7926C97.8028 32.2839 98.1509 31.6775 98.3541 31.0176C98.5573 30.3577 98.6104 29.661 98.5094 28.9781C98.603 28.2978 98.5446 27.6054 98.3383 26.9504C98.132 26.2953 97.783 25.6939 97.3162 25.1892C96.8494 24.6844 96.2765 24.2889 95.6384 24.0309C95.0004 23.7729 94.313 23.6589 93.6255 23.6969H90.8333V34.2894Z" fill="white"/>
<path d="M103.449 30.8025C103.379 30.0701 103.463 29.3312 103.696 28.6331C103.929 27.9349 104.305 27.2931 104.802 26.7486C105.298 26.2042 105.903 25.7691 106.578 25.4715C107.252 25.1738 107.982 25.02 108.72 25.02C109.458 25.02 110.187 25.1738 110.862 25.4715C111.537 25.7691 112.142 26.2042 112.638 26.7486C113.134 27.2931 113.511 27.9349 113.744 28.6331C113.977 29.3312 114.061 30.0701 113.99 30.8025C114.062 31.5357 113.979 32.2757 113.747 32.9749C113.514 33.6742 113.138 34.3172 112.641 34.8627C112.145 35.4083 111.54 35.8442 110.864 36.1425C110.189 36.4408 109.458 36.595 108.72 36.595C107.981 36.595 107.251 36.4408 106.575 36.1425C105.9 35.8442 105.294 35.4083 104.798 34.8627C104.302 34.3172 103.925 33.6742 103.693 32.9749C103.461 32.2757 103.378 31.5357 103.449 30.8025V30.8025ZM111.722 30.8025C111.722 28.3868 110.633 26.974 108.723 26.974C106.806 26.974 105.728 28.3868 105.728 30.8026C105.728 33.2377 106.806 34.6395 108.723 34.6395C110.633 34.6395 111.722 33.228 111.722 30.8025H111.722Z" fill="white"/>
<path d="M128.002 36.3779H125.714L123.404 28.1698H123.23L120.929 36.3779H118.663L115.583 25.2332H117.82L119.822 33.7373H119.987L122.284 25.2332H124.4L126.698 33.7373H126.872L128.865 25.2332H131.07L128.002 36.3779Z" fill="white"/>
<path d="M133.662 25.2323H135.785V27.0027H135.95C136.229 26.3668 136.701 25.8338 137.299 25.4779C137.897 25.122 138.591 24.9609 139.285 25.0171C139.829 24.9764 140.375 25.0581 140.882 25.2564C141.39 25.4546 141.847 25.7642 142.218 26.1623C142.59 26.5604 142.867 27.0368 143.029 27.5561C143.19 28.0754 143.233 28.6243 143.153 29.1623V36.3769H140.948V29.7146C140.948 27.9236 140.167 27.0329 138.536 27.0329C138.167 27.0158 137.798 27.0785 137.455 27.2166C137.113 27.3548 136.804 27.5652 136.551 27.8335C136.297 28.1017 136.105 28.4215 135.987 28.7708C135.869 29.1201 135.828 29.4907 135.867 29.8572V36.377H133.662L133.662 25.2323Z" fill="white"/>
<path d="M146.667 20.8826H148.873V36.3779H146.667V20.8826Z" fill="white"/>
<path d="M151.939 30.7988C151.869 30.0664 151.953 29.3274 152.186 28.6292C152.419 27.9311 152.795 27.2892 153.292 26.7447C153.788 26.2003 154.393 25.7652 155.068 25.4676C155.742 25.1699 156.472 25.0161 157.21 25.0161C157.948 25.0161 158.678 25.1699 159.352 25.4676C160.027 25.7652 160.632 26.2003 161.128 26.7447C161.625 27.2892 162.001 27.9311 162.234 28.6292C162.467 29.3274 162.551 30.0664 162.481 30.7988C162.553 31.532 162.47 32.272 162.237 32.9712C162.005 33.6705 161.628 34.3135 161.132 34.859C160.635 35.4045 160.03 35.8405 159.355 36.1388C158.679 36.4371 157.949 36.5912 157.21 36.5912C156.471 36.5912 155.741 36.4371 155.065 36.1388C154.39 35.8405 153.785 35.4045 153.288 34.859C152.792 34.3135 152.415 33.6705 152.183 32.9712C151.951 32.272 151.867 31.532 151.939 30.7988V30.7988ZM160.211 30.7988C160.211 28.3831 159.123 26.9703 157.213 26.9703C155.296 26.9703 154.217 28.3831 154.217 30.7989C154.217 33.234 155.296 34.6358 157.213 34.6358C159.123 34.6358 160.211 33.2243 160.211 30.7988H160.211Z" fill="white"/>
<path d="M164.803 33.2281C164.803 31.222 166.301 30.0654 168.96 29.9011L171.987 29.7271V28.7651C171.987 27.588 171.207 26.9234 169.699 26.9234C168.468 26.9234 167.615 27.3741 167.37 28.1621H165.235C165.46 26.2478 167.266 25.02 169.801 25.02C172.603 25.02 174.183 26.4109 174.183 28.7651V36.3798H172.06V34.8136H171.886C171.531 35.3754 171.034 35.8334 170.444 36.1409C169.854 36.4483 169.193 36.5941 168.529 36.5635C168.059 36.6121 167.585 36.5622 167.137 36.4169C166.688 36.2717 166.275 36.0342 165.924 35.72C165.573 35.4057 165.292 35.0216 165.099 34.5924C164.906 34.1632 164.805 33.6985 164.803 33.2281V33.2281ZM171.987 32.2758V31.344L169.258 31.518C167.719 31.6208 167.021 32.1428 167.021 33.1253C167.021 34.1284 167.894 34.7121 169.093 34.7121C169.445 34.7476 169.8 34.7122 170.138 34.608C170.475 34.5038 170.788 34.333 171.058 34.1057C171.328 33.8784 171.55 33.5992 171.709 33.2849C171.869 32.9705 171.963 32.6273 171.987 32.2758V32.2758Z" fill="white"/>
<path d="M177.082 30.8007C177.082 27.2792 178.897 25.0483 181.721 25.0483C182.42 25.0162 183.113 25.183 183.72 25.5293C184.327 25.8755 184.822 26.3868 185.148 27.0035H185.313V20.8826H187.519V36.3779H185.405V34.6171H185.231C184.879 35.2296 184.367 35.7346 183.748 36.0774C183.129 36.4201 182.428 36.5876 181.721 36.5616C178.878 36.5617 177.082 34.3307 177.082 30.8007ZM179.36 30.8007C179.36 33.1646 180.478 34.587 182.347 34.587C184.206 34.587 185.354 33.144 185.354 30.8104C185.354 28.4877 184.194 27.0242 182.347 27.0242C180.49 27.0242 179.36 28.4562 179.36 30.8007H179.36Z" fill="white"/>
<path d="M196.645 30.8025C196.574 30.0701 196.658 29.3312 196.891 28.6331C197.124 27.9349 197.501 27.2931 197.997 26.7486C198.493 26.2042 199.098 25.7691 199.773 25.4715C200.448 25.1738 201.177 25.02 201.915 25.02C202.653 25.02 203.383 25.1738 204.057 25.4715C204.732 25.7691 205.337 26.2042 205.833 26.7486C206.329 27.2931 206.706 27.9349 206.939 28.6331C207.172 29.3312 207.256 30.0701 207.186 30.8025C207.257 31.5357 207.174 32.2757 206.942 32.9749C206.71 33.6742 206.333 34.3172 205.837 34.8627C205.34 35.4083 204.735 35.8442 204.06 36.1425C203.384 36.4408 202.654 36.595 201.915 36.595C201.176 36.595 200.446 36.4408 199.77 36.1425C199.095 35.8442 198.49 35.4083 197.993 34.8627C197.497 34.3172 197.121 33.6742 196.888 32.9749C196.656 32.2757 196.573 31.5357 196.645 30.8025V30.8025ZM204.917 30.8025C204.917 28.3868 203.829 26.974 201.919 26.974C200.001 26.974 198.923 28.3868 198.923 30.8026C198.923 33.2377 200.002 34.6395 201.919 34.6395C203.829 34.6395 204.917 33.228 204.917 30.8025Z" fill="white"/>
<path d="M210.145 25.2323H212.268V27.0027H212.433C212.713 26.3668 213.184 25.8338 213.782 25.4779C214.38 25.122 215.074 24.9609 215.768 25.0171C216.312 24.9764 216.858 25.0581 217.366 25.2564C217.874 25.4546 218.33 25.7642 218.702 26.1623C219.073 26.5604 219.35 27.0368 219.512 27.5561C219.674 28.0754 219.716 28.6243 219.637 29.1623V36.3769H217.431V29.7146C217.431 27.9236 216.65 27.0329 215.019 27.0329C214.65 27.0158 214.281 27.0785 213.939 27.2166C213.596 27.3548 213.288 27.5652 213.034 27.8335C212.781 28.1017 212.588 28.4215 212.47 28.7708C212.352 29.1201 212.312 29.4907 212.351 29.8572V36.377H210.145V25.2323Z" fill="white"/>
<path d="M232.099 22.4585V25.2839H234.521V27.1365H232.099V32.8672C232.099 34.0346 232.582 34.5458 233.68 34.5458C233.961 34.5449 234.242 34.528 234.521 34.4951V36.3271C234.125 36.3978 233.723 36.4354 233.321 36.4395C230.868 36.4395 229.891 35.5791 229.891 33.4304V27.1364H228.117V25.2838H229.891V22.4585H232.099Z" fill="white"/>
<path d="M237.534 20.8826H239.72V27.0242H239.894C240.188 26.3823 240.672 25.8463 241.282 25.489C241.892 25.1318 242.597 24.9707 243.302 25.0277C243.843 24.9984 244.384 25.0884 244.886 25.2915C245.388 25.4945 245.839 25.8056 246.207 26.2024C246.574 26.5992 246.849 27.0721 247.013 27.5872C247.176 28.1024 247.223 28.6471 247.151 29.1825V36.3779H244.943V29.7251C244.943 27.945 244.112 27.0435 242.553 27.0435C242.174 27.0125 241.793 27.0644 241.436 27.1957C241.079 27.327 240.756 27.5345 240.488 27.8036C240.22 28.0728 240.014 28.397 239.884 28.7538C239.755 29.1105 239.706 29.4911 239.739 29.8689V36.3779H237.534L237.534 20.8826Z" fill="white"/>
<path d="M260.012 33.367C259.712 34.3855 259.063 35.2666 258.178 35.856C257.292 36.4454 256.228 36.7057 255.169 36.5912C254.433 36.6106 253.701 36.47 253.025 36.1791C252.349 35.8882 251.744 35.454 251.253 34.9067C250.761 34.3594 250.396 33.7121 250.18 33.0096C249.965 32.3071 249.906 31.5664 250.007 30.8388C249.909 30.109 249.969 29.3666 250.184 28.6621C250.398 27.9575 250.762 27.3071 251.251 26.755C251.739 26.2029 252.341 25.762 253.016 25.462C253.69 25.162 254.421 25.01 255.16 25.0163C258.269 25.0163 260.145 27.1349 260.145 30.6345V31.402H252.253V31.5252C252.219 31.9342 252.27 32.3459 252.405 32.7338C252.539 33.1218 252.753 33.4775 253.034 33.7781C253.314 34.0787 253.654 34.3176 254.032 34.4794C254.41 34.6413 254.818 34.7225 255.23 34.718C255.757 34.7812 256.292 34.6864 256.765 34.4458C257.239 34.2052 257.63 33.8297 257.889 33.3669L260.012 33.367ZM252.253 29.7753H257.898C257.926 29.4013 257.875 29.0256 257.749 28.6723C257.622 28.3191 257.423 27.9962 257.164 27.7243C256.905 27.4524 256.592 27.2375 256.244 27.0936C255.897 26.9496 255.523 26.8796 255.147 26.8882C254.766 26.8834 254.387 26.9549 254.034 27.0983C253.681 27.2417 253.36 27.4542 253.09 27.7233C252.82 27.9923 252.607 28.3125 252.464 28.6649C252.32 29.0174 252.249 29.3949 252.253 29.7753H252.253Z" fill="white"/>
</g>
<defs>
<clipPath id="clip0_215_10289">
<rect width="297" height="99" fill="white"/>
</clipPath>
</defs>
</svg>
