<svg width="65" height="65" viewBox="0 0 65 65" fill="none" xmlns="http://www.w3.org/2000/svg">
<path d="M31.5192 64.4881V64.496C14.3736 64.224 0.5 49.9871 0.5 32.506C0.5 14.8551 14.656 0.5 32.0192 0.5C49.3826 0.5 63.5384 14.8434 63.5384 32.494C63.5384 50.1448 49.3942 64.4881 32.0192 64.4881H31.5192ZM32.0192 2.98873H31.5192V3.00494C15.7087 3.27676 2.93775 16.415 2.93775 32.506C2.93775 48.7662 15.9788 62.0113 32.0192 62.0113C48.0596 62.0113 61.1006 48.7662 61.1006 32.506C61.1006 16.2462 48.0717 2.98873 32.0192 2.98873Z" fill="#4E4E4E" stroke="black"/>
<mask id="path-2-inside-1_268_7509" fill="white">
<path fill-rule="evenodd" clip-rule="evenodd" d="M26.9976 32.649V51.4857C26.9976 51.7596 27.2088 51.9739 27.4786 51.9739H34.3659C34.6357 51.9739 34.8469 51.7596 34.8469 51.4857V32.3394H39.8451C40.0915 32.3394 40.3027 32.1489 40.3262 31.8869L40.8072 26.1239C40.8307 25.8382 40.6078 25.5881 40.3262 25.5881H34.8469V21.4921C34.8469 20.5277 35.6095 19.7537 36.5599 19.7537H40.4083C40.6782 19.7537 40.8894 19.5394 40.8894 19.2655V13.5026C40.8894 13.2287 40.6782 13.0144 40.4083 13.0144H33.8965C30.0833 13.0144 26.9858 16.1578 26.9858 20.0276V25.5881H23.5363C23.2665 25.5881 23.0553 25.8025 23.0553 26.0763V31.8393C23.0553 32.1131 23.2665 32.3275 23.5363 32.3275H26.9858V32.637L26.9976 32.649Z"/>
</mask>
<path fill-rule="evenodd" clip-rule="evenodd" d="M26.9976 32.649V51.4857C26.9976 51.7596 27.2088 51.9739 27.4786 51.9739H34.3659C34.6357 51.9739 34.8469 51.7596 34.8469 51.4857V32.3394H39.8451C40.0915 32.3394 40.3027 32.1489 40.3262 31.8869L40.8072 26.1239C40.8307 25.8382 40.6078 25.5881 40.3262 25.5881H34.8469V21.4921C34.8469 20.5277 35.6095 19.7537 36.5599 19.7537H40.4083C40.6782 19.7537 40.8894 19.5394 40.8894 19.2655V13.5026C40.8894 13.2287 40.6782 13.0144 40.4083 13.0144H33.8965C30.0833 13.0144 26.9858 16.1578 26.9858 20.0276V25.5881H23.5363C23.2665 25.5881 23.0553 25.8025 23.0553 26.0763V31.8393C23.0553 32.1131 23.2665 32.3275 23.5363 32.3275H26.9858V32.637L26.9976 32.649Z" fill="#4E4E4E"/>
<path d="M26.9976 32.649H27.9976V32.2392L27.7101 31.9473L26.9976 32.649ZM34.8469 32.3394V31.3394H33.8469V32.3394H34.8469ZM40.3262 31.8869L41.3222 31.9761L41.3227 31.9701L40.3262 31.8869ZM40.8072 26.1239L41.8038 26.2071L41.8039 26.2058L40.8072 26.1239ZM34.8469 25.5881H33.8469V26.5881H34.8469V25.5881ZM26.9858 25.5881V26.5881H27.9858V25.5881H26.9858ZM26.9858 32.3275H27.9858V31.3275H26.9858V32.3275ZM26.9858 32.637H25.9858V33.0468L26.2733 33.3387L26.9858 32.637ZM25.9976 32.649V51.4857H27.9976V32.649H25.9976ZM25.9976 51.4857C25.9976 52.298 26.6427 52.9739 27.4786 52.9739V50.9739C27.7749 50.9739 27.9976 51.2212 27.9976 51.4857H25.9976ZM27.4786 52.9739H34.3659V50.9739H27.4786V52.9739ZM34.3659 52.9739C35.2018 52.9739 35.8469 52.2979 35.8469 51.4857H33.8469C33.8469 51.2213 34.0696 50.9739 34.3659 50.9739V52.9739ZM35.8469 51.4857V32.3394H33.8469V51.4857H35.8469ZM34.8469 33.3394H39.8451V31.3394H34.8469V33.3394ZM39.8451 33.3394C40.6233 33.3394 41.2538 32.7396 41.3222 31.9761L39.3302 31.7977C39.3516 31.5581 39.5598 31.3394 39.8451 31.3394V33.3394ZM41.3227 31.9701L41.8038 26.2071L39.8107 26.0408L39.3296 31.8037L41.3227 31.9701ZM41.8039 26.2058C41.8729 25.3649 41.2196 24.5881 40.3262 24.5881V26.5881C39.996 26.5881 39.7885 26.3114 39.8106 26.0421L41.8039 26.2058ZM40.3262 24.5881H34.8469V26.5881H40.3262V24.5881ZM35.8469 25.5881V21.4921H33.8469V25.5881H35.8469ZM35.8469 21.4921C35.8469 21.066 36.1757 20.7537 36.5599 20.7537V18.7537C35.0434 18.7537 33.8469 19.9893 33.8469 21.4921H35.8469ZM36.5599 20.7537H40.4083V18.7537H36.5599V20.7537ZM40.4083 20.7537C41.2443 20.7537 41.8894 20.0778 41.8894 19.2655H39.8894C39.8894 19.001 40.1121 18.7537 40.4083 18.7537V20.7537ZM41.8894 19.2655V13.5026H39.8894V19.2655H41.8894ZM41.8894 13.5026C41.8894 12.6904 41.2443 12.0144 40.4083 12.0144V14.0144C40.1121 14.0144 39.8894 13.7671 39.8894 13.5026H41.8894ZM40.4083 12.0144H33.8965V14.0144H40.4083V12.0144ZM33.8965 12.0144C29.5172 12.0144 25.9858 15.6195 25.9858 20.0276H27.9858C27.9858 16.6962 30.6494 14.0144 33.8965 14.0144V12.0144ZM25.9858 20.0276V25.5881H27.9858V20.0276H25.9858ZM26.9858 24.5881H23.5363V26.5881H26.9858V24.5881ZM23.5363 24.5881C22.7004 24.5881 22.0553 25.2641 22.0553 26.0763H24.0553C24.0553 26.3408 23.8326 26.5881 23.5363 26.5881V24.5881ZM22.0553 26.0763V31.8393H24.0553V26.0763H22.0553ZM22.0553 31.8393C22.0553 32.6515 22.7004 33.3275 23.5363 33.3275V31.3275C23.8326 31.3275 24.0553 31.5748 24.0553 31.8393H22.0553ZM23.5363 33.3275H26.9858V31.3275H23.5363V33.3275ZM25.9858 32.3275V32.637H27.9858V32.3275H25.9858ZM26.2733 33.3387L26.2851 33.3506L27.7101 31.9473L27.6983 31.9354L26.2733 33.3387Z" fill="black" mask="url(#path-2-inside-1_268_7509)"/>
</svg>
