<svg width="32" height="32" viewBox="0 0 32 32" fill="none" xmlns="http://www.w3.org/2000/svg">
<circle cx="16" cy="16" r="16" fill="white"/>
<path d="M23.9601 16.6911L16.0131 15.9034L20.2496 12.0935L20.2151 12.0535L15.8892 15.9434L23.9553 16.7427L23.9601 16.6911Z" fill="black"/>
<path d="M23.9557 16.8156C23.9534 16.8157 23.9511 16.8157 23.9488 16.8156L15.8827 16.0163C15.869 16.0148 15.856 16.0093 15.8454 16.0005C15.8348 15.9916 15.8269 15.9799 15.8227 15.9666C15.8185 15.9533 15.8182 15.9391 15.8219 15.9257C15.8255 15.9122 15.8329 15.9002 15.8432 15.8909L20.1691 12.0011C20.1832 11.9884 20.2017 11.982 20.2204 11.9831C20.2392 11.9843 20.2568 11.9929 20.2693 12.0072L20.3038 12.0471C20.31 12.0542 20.3148 12.0624 20.3178 12.0714C20.3209 12.0803 20.3221 12.0897 20.3216 12.0992C20.321 12.1086 20.3186 12.1178 20.3145 12.1263C20.3104 12.1348 20.3048 12.1424 20.2978 12.1487L16.1828 15.8491L23.9682 16.6208C23.9775 16.6217 23.9865 16.6245 23.9947 16.6289C24.003 16.6334 24.0102 16.6394 24.0161 16.6467C24.0221 16.654 24.0265 16.6624 24.0292 16.6715C24.0319 16.6805 24.0329 16.69 24.032 16.6994L24.027 16.7527C24.0252 16.7704 24.017 16.7869 24.004 16.7988C23.9909 16.8108 23.974 16.8174 23.9564 16.8174L23.9557 16.8156Z" fill="black"/>
<path d="M16.0205 15.9041L11.779 12.0542L11.7441 12.0942L15.9857 15.9441" fill="black"/>
<path d="M15.9856 16.0153C15.9682 16.0153 15.9514 16.0088 15.9383 15.997L11.6969 12.1472C11.683 12.1344 11.6745 12.1166 11.6735 12.0976C11.6724 12.0786 11.6788 12.0599 11.6913 12.0456L11.7261 12.0063C11.7386 11.9921 11.7562 11.9835 11.775 11.9825C11.7938 11.9814 11.8122 11.9879 11.8262 12.0006L16.0679 15.8505C16.0728 15.8748 16.0728 15.8998 16.0677 15.9241C16.0627 15.9483 16.0528 15.9713 16.0386 15.9915C16.032 15.999 16.0238 16.0051 16.0147 16.0092C16.0055 16.0133 15.9956 16.0154 15.9856 16.0153Z" fill="black"/>
<path d="M16.0001 15.8976L8.0415 16.6909L8.04663 16.7435L16.0059 15.9498" fill="black"/>
<path d="M8.04666 16.8152C8.02907 16.8152 8.01211 16.8086 7.9991 16.7966C7.98608 16.7846 7.97793 16.7681 7.97623 16.7504L7.9711 16.6979C7.9701 16.6884 7.97098 16.6788 7.97369 16.6696C7.9764 16.6605 7.98088 16.652 7.98687 16.6446C7.99274 16.6373 7.99999 16.6312 8.0082 16.6267C8.01642 16.6223 8.02543 16.6195 8.0347 16.6186L15.9933 15.8252C16.0026 15.8242 16.012 15.8252 16.0209 15.8279C16.0298 15.8306 16.0381 15.8351 16.0453 15.8411C16.0525 15.8471 16.0585 15.8545 16.0629 15.8628C16.0673 15.8711 16.07 15.8803 16.0709 15.8897C16.0717 15.8986 16.0709 15.9077 16.0685 15.9163C16.0726 15.9244 16.0752 15.9331 16.076 15.9422C16.0778 15.9611 16.0722 15.9801 16.0602 15.9948C16.0483 16.0095 16.0311 16.0189 16.0124 16.0208L8.05376 16.814C8.05142 16.8146 8.04905 16.815 8.04666 16.8152Z" fill="black"/>
<path d="M15.9639 15.9464L19.7031 18.1978L17.4074 26.021L15.9981 24.1339L15.9565 24.1659L17.4282 26.1363L19.765 18.1735L15.9908 15.9012L15.9646 15.9466L15.9639 15.9464Z" fill="black"/>
<path d="M17.428 26.2078C17.4171 26.2078 17.4063 26.2052 17.3965 26.2003C17.3867 26.1953 17.3781 26.1882 17.3715 26.1793L15.8998 24.2089C15.8884 24.1938 15.8834 24.1747 15.8859 24.1559C15.8883 24.137 15.8981 24.1199 15.913 24.1083L15.9545 24.0764C15.9619 24.0706 15.9703 24.0664 15.9793 24.064C15.9883 24.0616 15.9976 24.0609 16.0069 24.0622C16.0161 24.0634 16.025 24.0665 16.0331 24.0712C16.0411 24.0759 16.0482 24.0822 16.0538 24.0897L17.3786 25.8637L19.6186 18.2305L15.9262 16.0079C15.9101 15.9981 15.8984 15.9822 15.8938 15.9637C15.8892 15.9453 15.8919 15.9257 15.9015 15.9093L15.9278 15.8637C15.9375 15.8474 15.9531 15.8356 15.9713 15.8309C15.9895 15.8262 16.0087 15.829 16.0249 15.8387L19.799 18.111C19.8126 18.1192 19.8232 18.1317 19.8289 18.1467C19.8347 18.1616 19.8354 18.178 19.8308 18.1934L17.4958 26.1567C17.4921 26.1694 17.4849 26.1808 17.4752 26.1896C17.4655 26.1985 17.4535 26.2045 17.4406 26.2069C17.4365 26.2075 17.4323 26.2079 17.428 26.2078Z" fill="black"/>
<path d="M8.03564 16.7421L12.199 18.2062L14.6046 26.1503L15.9974 24.1654L15.955 24.1347L14.6228 26.0326L12.2405 18.1654L8.05273 16.6923L8.03564 16.7421Z" fill="black"/>
<path d="M14.6049 26.2222C14.6011 26.2222 14.5972 26.2218 14.5935 26.2212C14.5804 26.2191 14.5682 26.2133 14.5582 26.2045C14.5483 26.1957 14.5409 26.1843 14.5371 26.1714L12.1422 18.2622L8.01284 16.8102C8.00401 16.8071 7.99588 16.8023 7.9889 16.796C7.98192 16.7897 7.97623 16.7821 7.97216 16.7736C7.9681 16.7651 7.96573 16.7558 7.9652 16.7464C7.96467 16.7369 7.96599 16.7275 7.96908 16.7185L7.98629 16.6686C7.98935 16.6597 7.99411 16.6514 8.0003 16.6444C8.00649 16.6373 8.014 16.6316 8.02238 16.6275C8.03077 16.6234 8.03987 16.621 8.04917 16.6204C8.05846 16.6199 8.06778 16.6212 8.07657 16.6244L12.2646 18.0973C12.2751 18.101 12.2846 18.1072 12.2924 18.1153C12.3001 18.1234 12.3059 18.1333 12.3092 18.1441L14.6493 25.872L15.8976 24.0929C15.903 24.0852 15.9098 24.0786 15.9177 24.0736C15.9256 24.0686 15.9344 24.0652 15.9436 24.0636C15.9527 24.062 15.9621 24.0623 15.9712 24.0644C15.9803 24.0666 15.9889 24.0705 15.9964 24.076L16.039 24.1065C16.0543 24.1176 16.0646 24.1343 16.0677 24.1531C16.0708 24.1718 16.0665 24.1911 16.0557 24.2066L14.6622 26.1915C14.6557 26.2009 14.6472 26.2086 14.6372 26.2139C14.6272 26.2192 14.6162 26.2221 14.6049 26.2222Z" fill="black"/>
<path d="M12.2333 18.2084L15.9507 15.9704V24.1764H16.0032V15.8772L12.207 18.1627L12.2333 18.2082V18.2084Z" fill="black"/>
<path d="M16.0026 24.248H15.9501C15.9313 24.248 15.9133 24.2404 15.9 24.2269C15.8867 24.2135 15.8792 24.1952 15.8792 24.1762V16.0966L12.2696 18.2706C12.2534 18.2802 12.2341 18.283 12.2159 18.2784C12.2069 18.276 12.1984 18.2719 12.191 18.2662C12.1835 18.2605 12.1772 18.2534 12.1725 18.2453L12.1462 18.1999C12.1415 18.1918 12.1383 18.1828 12.137 18.1735C12.1356 18.1641 12.1361 18.1546 12.1384 18.1455C12.1407 18.1363 12.1448 18.1277 12.1503 18.1202C12.1559 18.1126 12.1629 18.1062 12.1709 18.1014L15.9671 15.8159C15.9779 15.8094 15.9902 15.8059 16.0027 15.8058C16.0152 15.8056 16.0276 15.8089 16.0385 15.8152C16.0493 15.8214 16.0584 15.8305 16.0647 15.8415C16.071 15.8525 16.0743 15.865 16.0742 15.8777V24.1769C16.0743 24.1864 16.0724 24.1957 16.0689 24.2044C16.0653 24.2132 16.0601 24.2211 16.0535 24.2278C16.047 24.2344 16.0391 24.2397 16.0305 24.2433C16.0219 24.2469 16.0127 24.2488 16.0034 24.2488L16.0026 24.248Z" fill="black"/>
<path d="M15.9724 26.2579H15.1234H15.1126C14.8529 26.2506 14.6037 26.1523 14.4075 25.9796C14.3374 25.9213 14.2724 25.857 14.2132 25.7874C14.191 25.7608 14.1737 25.7394 14.1626 25.7244L14.1494 25.7068L14.1455 25.7009L14.1239 25.7157L14.1471 25.7035L11.5221 20.6413C11.2108 20.0916 10.8276 19.587 10.3831 19.1413L10.3651 19.1604L10.3838 19.1421L8.06328 16.6988L8.04449 16.7171L8.06433 16.7C7.87091 16.4683 7.67696 16.235 7.47775 16.0073C7.36618 15.8965 7.27738 15.7643 7.21649 15.6184C7.15559 15.4726 7.12381 15.3159 7.12297 15.1576C7.12431 15.0385 7.13641 14.9198 7.1591 14.8029C7.1591 14.7992 7.1662 14.7687 7.17724 14.7182C7.26081 14.3366 7.61205 12.7546 7.94226 11.268C8.10743 10.5249 8.26748 9.80554 8.38614 9.27215L8.52858 8.63152C8.56274 8.47779 8.58206 8.39173 8.58206 8.39107V8.39013C8.62915 8.09423 8.72647 7.80884 8.8697 7.54662C8.93823 7.42657 9.03117 7.32267 9.14236 7.24183C9.25546 7.16309 9.38978 7.12169 9.52697 7.12327C9.61145 7.1241 9.69544 7.13651 9.77664 7.16017L9.7836 7.13472L9.76757 7.1555L15.9768 12.0617L22.2334 7.1571L22.2174 7.13606L22.2244 7.1615C22.3058 7.13779 22.39 7.12537 22.4747 7.1246C22.6119 7.12304 22.7462 7.16445 22.8593 7.24316C23.0272 7.37239 23.1564 7.54622 23.2327 7.74538C23.3185 7.95296 23.3811 8.16957 23.4196 8.3912V8.39213C23.4196 8.39213 23.4415 8.49111 23.48 8.66442C23.6149 9.27068 23.9523 10.7877 24.2577 12.1621C24.4102 12.8494 24.5549 13.5009 24.6623 13.9853C24.716 14.2276 24.7602 14.4278 24.7916 14.5698C24.823 14.7118 24.8414 14.7963 24.8427 14.8039C24.8654 14.9206 24.8774 15.0392 24.8786 15.1581C24.8777 15.3165 24.846 15.4732 24.7851 15.619C24.7242 15.7649 24.6354 15.8971 24.5238 16.008C24.3244 16.2354 24.1305 16.4688 23.9371 16.7007L23.957 16.7178L23.9382 16.6995L21.6177 19.1425L21.6365 19.1608L21.6183 19.1417C21.1738 19.5874 20.7906 20.092 20.4793 20.6417L17.8542 25.7039L17.8775 25.7161L17.8559 25.7013L17.8518 25.7072C17.7691 25.8198 17.6715 25.9204 17.5618 26.0061C17.3714 26.1636 17.1347 26.2523 16.889 26.2582H15.9719V26.3115H16.889C17.1608 26.3043 17.4217 26.2017 17.6271 26.0212C17.7298 25.937 17.8211 25.8397 17.899 25.7316L17.8999 25.7302L20.5257 20.6672C20.7293 20.2962 20.9707 19.9479 21.2461 19.6281C21.3614 19.4914 21.4638 19.3794 21.5371 19.3017C21.5739 19.2627 21.6028 19.2325 21.6239 19.2119C21.6449 19.1914 21.6551 19.1806 21.6551 19.1806L23.9764 16.7367V16.7359C24.1699 16.504 24.3635 16.271 24.5621 16.0442C24.6779 15.9285 24.7699 15.7907 24.8331 15.6388C24.8962 15.487 24.9292 15.324 24.9301 15.1592C24.9287 15.0369 24.9164 14.9151 24.8933 14.7951C24.891 14.7831 24.867 14.6764 24.8276 14.4949C24.548 13.2278 23.4698 8.38161 23.4698 8.38161L23.4443 8.38747L23.4699 8.38254C23.4217 8.08035 23.3222 7.78894 23.1756 7.52131C23.1036 7.39452 23.0058 7.28475 22.8886 7.19933C22.7668 7.11466 22.6223 7.07001 22.4747 7.07145C22.3853 7.07228 22.2964 7.08537 22.2104 7.11034L22.2054 7.11168L15.9768 11.9942L9.79648 7.11128L9.79148 7.10995C9.70558 7.08497 9.61673 7.07188 9.52736 7.07105C9.37968 7.06964 9.23514 7.11428 9.11332 7.19893C8.93733 7.33369 8.80173 7.51535 8.72161 7.72366C8.63425 7.9349 8.57043 8.15535 8.53134 8.38094L8.55696 8.38587L8.53147 8.38001C8.53147 8.38001 8.17931 9.9626 7.82544 11.5554C7.64844 12.3518 7.47066 13.1508 7.33676 13.7559C7.26974 14.0584 7.21337 14.3124 7.17343 14.4935C7.15345 14.5839 7.13755 14.6561 7.12638 14.7066C7.11521 14.7571 7.10891 14.7866 7.10772 14.7932C7.08446 14.9132 7.0721 15.0351 7.0708 15.1574C7.07169 15.3222 7.10465 15.4852 7.16778 15.637C7.23092 15.7888 7.32299 15.9265 7.43873 16.0422C7.63728 16.2687 7.83109 16.502 8.02452 16.7337V16.7345L10.3459 19.1785C10.3459 19.1785 10.3568 19.1892 10.3773 19.2098C10.8054 19.6434 11.1746 20.1329 11.4751 20.6653L14.1019 25.7294L14.1027 25.7306C14.1805 25.8388 14.2719 25.9362 14.3745 26.0205C14.58 26.201 14.8409 26.3036 15.1126 26.3107H15.1237H15.9726L15.9724 26.2579Z" fill="black"/>
<path d="M16.8895 26.3826H15.9723H15.1235H15.1129C14.8245 26.3759 14.5475 26.2676 14.3294 26.0762C14.2217 25.9877 14.1259 25.8854 14.0443 25.7718C14.0428 25.7694 14.0403 25.7655 14.0388 25.763L11.4133 20.6993V20.6985C11.1156 20.1731 10.7509 19.6898 10.3284 19.2612C10.3111 19.2436 10.301 19.2336 10.2987 19.2315L10.296 19.2287L7.97395 16.7848C7.97238 16.7832 7.9708 16.7813 7.96935 16.7796L7.92297 16.7239C7.74834 16.5146 7.56818 16.2976 7.38567 16.0906C7.26403 15.9685 7.16736 15.8233 7.10118 15.6633C7.035 15.5033 7.00062 15.3316 7 15.1581C7.00124 15.0314 7.01399 14.905 7.03811 14.7807C7.03925 14.7739 7.0456 14.7442 7.05716 14.6916C7.06846 14.6408 7.08423 14.5683 7.1042 14.4784C7.14362 14.2975 7.20052 14.0433 7.26753 13.7408C7.4017 13.1358 7.57909 12.3367 7.75622 11.5404C8.10299 9.9795 8.44805 8.42849 8.46185 8.36694C8.50174 8.13645 8.56707 7.91124 8.65659 7.69554C8.74169 7.47465 8.88607 7.28232 9.0734 7.14031C9.20686 7.04756 9.36519 6.9986 9.527 7.00003C9.62275 7.0009 9.71795 7.01483 9.81004 7.04146L9.8149 7.04279C9.82388 7.04534 9.83231 7.04959 9.83973 7.05531L15.9762 11.9043L22.1612 7.05531C22.1685 7.04963 22.1769 7.04543 22.1858 7.04293L22.1906 7.04159C22.2828 7.01498 22.378 7.00104 22.4738 7.00016C22.6356 6.99875 22.7939 7.04771 22.9274 7.14044C23.053 7.23123 23.1581 7.34807 23.2357 7.4832C23.3872 7.75721 23.4898 8.05621 23.5387 8.36641C23.5613 8.46805 24.6212 13.233 24.8963 14.4786C24.9518 14.7295 24.961 14.7716 24.962 14.7811C24.986 14.9054 24.9987 15.0318 25 15.1585C24.9994 15.332 24.965 15.5037 24.8988 15.6637C24.8326 15.8237 24.7359 15.9689 24.6142 16.091C24.4318 16.2991 24.2507 16.5162 24.0755 16.7263L24.0296 16.7813L24.026 16.7853L21.7046 19.2292L21.7014 19.2324C21.7014 19.2324 21.6908 19.2428 21.672 19.262C21.6532 19.2812 21.6227 19.3124 21.5863 19.3507C21.5206 19.4209 21.4155 19.534 21.2979 19.6743C21.0266 19.9899 20.7885 20.3332 20.5873 20.6987L20.5865 20.7002L17.9607 25.7633C17.9596 25.7655 17.9583 25.7676 17.957 25.7697L17.9537 25.7745C17.8724 25.8871 17.7771 25.9886 17.6701 26.0765C17.4528 26.2672 17.1768 26.3754 16.8895 26.3826ZM15.9723 26.1861H16.8897C17.1198 26.1812 17.3415 26.0977 17.5189 25.9491C17.6232 25.8676 17.716 25.772 17.7948 25.6651L20.4167 20.6089L20.4179 20.6068C20.7318 20.0513 21.1188 19.5417 21.568 19.0918L23.8853 16.6521L23.9258 16.6035C24.1027 16.3912 24.2857 16.172 24.4708 15.9604C24.5765 15.8559 24.6607 15.7312 24.7185 15.5935C24.7763 15.4558 24.8067 15.3079 24.8078 15.1582C24.8064 15.0437 24.7948 14.9295 24.7729 14.8172C24.7718 14.8109 24.7576 14.746 24.7222 14.5858C24.6911 14.4438 24.6467 14.2433 24.5929 14.0014C24.4857 13.517 24.341 12.8653 24.1883 12.1782C23.904 10.8976 23.5916 9.4934 23.4412 8.81707L23.4107 8.6804C23.3667 8.48231 23.3543 8.42729 23.3506 8.40997L23.3495 8.40491C23.3122 8.18859 23.2512 7.97719 23.1675 7.77467C23.0968 7.58765 22.9761 7.42427 22.819 7.30283C22.7178 7.23197 22.5973 7.19473 22.4743 7.19626C22.4022 7.19695 22.3306 7.20684 22.2609 7.2257L16.0193 12.1185C16.0069 12.1283 15.9916 12.1336 15.9758 12.1336C15.9601 12.1336 15.9448 12.1283 15.9323 12.1185L9.74039 7.22516C9.67085 7.2063 9.59924 7.19641 9.52726 7.19572C9.40425 7.19418 9.28381 7.23142 9.18259 7.30229C9.07971 7.37733 8.99376 7.47369 8.93043 7.58498C8.79079 7.83909 8.69653 8.11622 8.65199 8.40358L8.65107 8.40771L8.59785 8.64749L8.01153 11.2846C7.56477 13.2951 7.3151 14.4235 7.24651 14.7341C7.236 14.7823 7.22969 14.8117 7.22864 14.8168C7.20679 14.9291 7.19513 15.0433 7.19382 15.1578C7.19496 15.3074 7.22531 15.4553 7.28311 15.593C7.34092 15.7307 7.42503 15.8553 7.5306 15.9599C7.71456 16.1702 7.89721 16.3886 8.07356 16.5993L8.11639 16.6507L10.4333 19.09C10.883 19.5401 11.2701 20.0502 11.5841 20.6061L11.5849 20.6075L14.2081 25.6655C14.21 25.6683 14.214 25.6738 14.2194 25.6809C14.229 25.6943 14.2456 25.7145 14.2669 25.7404C14.3236 25.8068 14.3857 25.8682 14.4526 25.9239C14.6365 26.0853 14.8695 26.1777 15.1125 26.1858H15.1229H15.9727L15.9723 26.1861Z" fill="black"/>
<path d="M23.2454 7.74271L20.2184 12.0475H11.7824L8.73896 7.78587L8.69678 7.81691L11.7561 12.1004H20.2447L23.2868 7.77335L23.2443 7.74271H23.2454Z" fill="black"/>
<path d="M20.2457 12.1722H11.7564C11.7452 12.1722 11.7342 12.1695 11.7242 12.1644C11.7142 12.1592 11.7056 12.1517 11.699 12.1425L8.63918 7.85912C8.62818 7.84369 8.62366 7.82446 8.62662 7.80566C8.62957 7.78686 8.63976 7.77001 8.65495 7.75881L8.69726 7.72777C8.71237 7.71649 8.73126 7.71171 8.74982 7.71445C8.759 7.71593 8.7678 7.71923 8.77571 7.72417C8.78363 7.72911 8.7905 7.73558 8.79594 7.74322L11.8192 11.9757H20.1822L23.1875 7.70099C23.1985 7.6855 23.215 7.67503 23.2336 7.67189C23.2521 7.66874 23.2711 7.67317 23.2865 7.68421L23.3289 7.71498C23.3441 7.72609 23.3544 7.74284 23.3575 7.7616C23.3591 7.77086 23.3588 7.78033 23.3568 7.78948C23.3547 7.79862 23.3508 7.80726 23.3455 7.81489L20.3034 12.1418C20.2968 12.1512 20.2882 12.1588 20.2782 12.1641C20.2681 12.1694 20.257 12.1722 20.2457 12.1722Z" fill="black"/>
<path d="M9.07397 7.26595L13.9762 12.0924L14.0125 12.0545L9.11037 7.22812" fill="black"/>
<path d="M13.976 12.1643C13.9576 12.1643 13.9398 12.157 13.9266 12.144L9.02439 7.31746C9.01093 7.30419 9.00321 7.28605 9.00294 7.26701C9.00267 7.24798 9.00986 7.22961 9.02294 7.21595C9.0292 7.20949 9.03654 7.20421 9.04463 7.20037C9.04803 7.19203 9.05298 7.18443 9.05921 7.17799C9.07232 7.16433 9.09025 7.1565 9.10904 7.15623C9.12784 7.15595 9.14598 7.16325 9.15947 7.17652L14.0616 12.0034C14.0683 12.01 14.0736 12.0178 14.0773 12.0265C14.081 12.0351 14.083 12.0444 14.0831 12.0539C14.0833 12.0633 14.0816 12.0727 14.0781 12.0814C14.0746 12.0902 14.0695 12.0982 14.063 12.1049L14.0266 12.1429C14.02 12.1497 14.0122 12.1551 14.0035 12.1588C13.9948 12.1625 13.9854 12.1644 13.976 12.1643Z" fill="black"/>
<path d="M22.8526 7.20026L17.9775 12.0557L18.0141 12.0934L22.8891 7.23796" fill="black"/>
<path d="M18.014 12.1646C18.0047 12.1645 17.9955 12.1626 17.9869 12.1589C17.9783 12.1552 17.9706 12.1498 17.964 12.143L17.9275 12.1055C17.9144 12.0919 17.9071 12.0735 17.9072 12.0544C17.9074 12.0354 17.915 12.0172 17.9284 12.0038L22.8035 7.14842C22.8101 7.14181 22.818 7.13659 22.8266 7.13306C22.8352 7.12954 22.8445 7.12777 22.8538 7.12787C22.8631 7.12797 22.8723 7.12993 22.8809 7.13364C22.8894 7.13735 22.8972 7.14273 22.9037 7.14949C22.9099 7.15597 22.9148 7.16356 22.9183 7.17187C22.9265 7.17556 22.9339 7.18075 22.9402 7.18719C22.9468 7.19392 22.9519 7.20189 22.9554 7.21064C22.9589 7.21939 22.9607 7.22876 22.9606 7.2382C22.9605 7.24764 22.9586 7.25697 22.9549 7.26566C22.9513 7.27435 22.946 7.28222 22.9393 7.28883L18.0643 12.1442C18.0509 12.1575 18.0328 12.1648 18.014 12.1646Z" fill="black"/>
<path d="M11.7496 12.0572L8.02417 16.7005L8.06464 16.734L11.79 12.0907" fill="black"/>
<path d="M8.06466 16.8058C8.04836 16.8057 8.03259 16.8 8.01998 16.7896L7.97951 16.7562C7.96493 16.7442 7.95566 16.7268 7.95374 16.7078C7.95182 16.6888 7.9574 16.6698 7.96926 16.655L11.6946 12.012C11.7005 12.0046 11.7077 11.9985 11.7159 11.9941C11.7241 11.9896 11.7331 11.9868 11.7424 11.9858C11.7516 11.9848 11.761 11.9857 11.7699 11.9884C11.7789 11.9911 11.7872 11.9956 11.7944 12.0016C11.8014 12.0072 11.8072 12.0142 11.8116 12.0221C11.8201 12.025 11.8281 12.0295 11.835 12.0354C11.8495 12.0474 11.8588 12.0648 11.8607 12.0838C11.8627 12.1028 11.8571 12.1217 11.8452 12.1365L8.11958 16.7792C8.11376 16.7866 8.10653 16.7928 8.09831 16.7974C8.0901 16.8019 8.08107 16.8048 8.07175 16.8058C8.06939 16.806 8.06702 16.806 8.06466 16.8058Z" fill="black"/>
<path d="M23.9778 16.7005L20.2524 12.0572L20.2119 12.0907L23.9373 16.7338" fill="black"/>
<path d="M23.9373 16.8058C23.9267 16.8058 23.9163 16.8034 23.9068 16.7988C23.8973 16.7942 23.8889 16.7875 23.8822 16.7791L20.157 12.1358C20.1451 12.1211 20.1396 12.1021 20.1415 12.0832C20.1434 12.0643 20.1527 12.0469 20.1672 12.0349L20.2076 12.0015C20.2222 11.9895 20.2409 11.9839 20.2596 11.9858C20.2783 11.9878 20.2955 11.9972 20.3074 12.0119L24.0328 16.6551C24.0447 16.6699 24.0503 16.6889 24.0483 16.7079C24.0464 16.7269 24.0371 16.7443 24.0226 16.7564C24.0156 16.7622 24.0077 16.7667 23.9992 16.7697C23.9948 16.7776 23.989 16.7846 23.982 16.7902C23.9693 16.8005 23.9535 16.806 23.9373 16.8058Z" fill="black"/>
<path d="M19.742 18.2107L23.9661 16.7424L23.9492 16.6925L19.7251 18.1608" fill="black"/>
<path d="M19.7423 18.2826C19.7327 18.2826 19.7232 18.2807 19.7144 18.2769C19.7055 18.2731 19.6976 18.2675 19.6909 18.2604C19.6843 18.2534 19.6792 18.245 19.6758 18.2359C19.6725 18.2268 19.671 18.2171 19.6715 18.2073C19.6657 18.2005 19.6612 18.1925 19.6583 18.1839C19.6523 18.1659 19.6535 18.1462 19.6618 18.1291C19.67 18.112 19.6846 18.099 19.7024 18.0928L23.9264 16.6245C23.9442 16.6183 23.9637 16.6195 23.9806 16.6278C23.9975 16.6362 24.0104 16.651 24.0166 16.669L24.0334 16.7191C24.0394 16.7371 24.0382 16.7568 24.03 16.7739C24.0217 16.791 24.0071 16.8041 23.9894 16.8103L19.7653 18.2786C19.7579 18.2813 19.7501 18.2826 19.7423 18.2826Z" fill="black"/>
</svg>
