<svg width="118" height="127" viewBox="0 0 118 127" fill="none" xmlns="http://www.w3.org/2000/svg">
<path d="M110.365 63.0629L58.6511 57.9372L86.2195 33.1448L85.9946 32.8848L57.8447 58.1972L110.333 63.3984L110.365 63.0629Z" fill="#333333"/>
<path d="M110.335 63.8725C110.32 63.8735 110.305 63.8735 110.29 63.8725L57.8012 58.6713C57.7122 58.6616 57.628 58.6258 57.5588 58.5685C57.4895 58.5111 57.4381 58.4346 57.411 58.3482C57.3838 58.2618 57.382 58.1692 57.4057 58.0818C57.4294 57.9943 57.4777 57.9158 57.5447 57.8556L85.6945 32.5432C85.7861 32.4609 85.9062 32.4189 86.0284 32.4264C86.1506 32.4339 86.2649 32.4902 86.3461 32.5831L86.5709 32.8431C86.6112 32.8891 86.6422 32.9426 86.662 33.0007C86.6818 33.0588 86.6902 33.1203 86.6865 33.1817C86.6829 33.243 86.6673 33.3031 86.6407 33.3583C86.6141 33.4136 86.5771 33.463 86.5316 33.5037L59.7542 57.5834L110.416 62.6052C110.477 62.6112 110.535 62.6291 110.589 62.6581C110.642 62.687 110.69 62.7263 110.728 62.7738C110.767 62.8213 110.796 62.876 110.813 62.9349C110.831 62.9937 110.837 63.0554 110.831 63.1166L110.799 63.4634C110.787 63.5788 110.734 63.6858 110.649 63.7636C110.564 63.8415 110.454 63.8846 110.339 63.8847L110.335 63.8725Z" fill="#333333"/>
<path d="M58.6981 57.9414L31.0972 32.889L30.8706 33.1491L58.4715 58.2015" fill="#333333"/>
<path d="M58.4723 58.6653C58.3588 58.6655 58.2492 58.6232 58.1645 58.5465L30.5645 33.4941C30.4735 33.4113 30.4185 33.2953 30.4116 33.1715C30.4047 33.0477 30.4465 32.9262 30.5277 32.8335L30.7543 32.5778C30.8359 32.4854 30.9503 32.4295 31.0725 32.4225C31.1947 32.4155 31.3146 32.458 31.4059 32.5406L59.0076 57.5929C59.0397 57.7509 59.0394 57.9139 59.0066 58.0717C58.9738 58.2295 58.9092 58.3787 58.8169 58.5101C58.7737 58.5593 58.7206 58.5986 58.6612 58.6254C58.6017 58.6522 58.5374 58.6658 58.4723 58.6653Z" fill="#333333"/>
<path d="M58.568 57.8989L6.77881 63.0611L6.81216 63.4035L58.6056 58.2387" fill="#333333"/>
<path d="M6.81141 63.8708C6.69694 63.8707 6.58662 63.8274 6.5019 63.7494C6.41718 63.6713 6.36413 63.5641 6.35309 63.4486L6.31974 63.1071C6.31323 63.0453 6.31896 62.9827 6.33658 62.9232C6.3542 62.8637 6.38336 62.8083 6.42235 62.7603C6.46053 62.7126 6.50773 62.673 6.56117 62.644C6.61462 62.615 6.67324 62.5971 6.7336 62.5913L58.5228 57.4282C58.5831 57.422 58.6441 57.4279 58.7021 57.4457C58.7602 57.4634 58.8142 57.4927 58.8611 57.5316C58.908 57.5706 58.9468 57.6186 58.9753 57.6729C59.0038 57.7272 59.0215 57.7866 59.0273 57.8478C59.0328 57.9061 59.0276 57.9649 59.0119 58.0212C59.0386 58.0736 59.0551 58.1306 59.0606 58.1893C59.0725 58.3128 59.0357 58.436 58.9581 58.5319C58.8805 58.6278 58.7685 58.6885 58.6468 58.7008L6.85758 63.863C6.84237 63.8665 6.82694 63.8691 6.81141 63.8708Z" fill="#333333"/>
<path d="M58.3296 58.2171L82.6616 72.8671L67.7226 123.775L58.5519 111.495L58.2817 111.704L67.8586 124.525L83.0643 72.7093L58.5049 57.9224L58.3339 58.218L58.3296 58.2171Z" fill="#333333"/>
<path d="M67.8569 124.991C67.7856 124.991 67.7153 124.974 67.6515 124.942C67.5878 124.91 67.5322 124.863 67.4892 124.805L57.9124 111.983C57.8382 111.885 57.8056 111.761 57.8216 111.638C57.8377 111.516 57.9011 111.404 57.9979 111.329L58.2681 111.121C58.3162 111.084 58.371 111.056 58.4295 111.04C58.488 111.024 58.549 111.02 58.6091 111.028C58.6691 111.037 58.727 111.057 58.7794 111.087C58.8318 111.118 58.8777 111.159 58.9146 111.208L67.5354 122.752L82.1118 73.0803L58.0843 58.6167C57.9792 58.5531 57.9034 58.4498 57.8732 58.3296C57.8431 58.2094 57.8612 58.082 57.9235 57.9752L58.0945 57.6788C58.1573 57.5725 58.259 57.4958 58.3773 57.4652C58.4957 57.4347 58.6212 57.4529 58.7264 57.5158L83.2858 72.3028C83.3743 72.3559 83.4428 72.4374 83.4803 72.5345C83.5178 72.6316 83.5222 72.7386 83.4928 72.8385L68.2981 124.658C68.2737 124.741 68.2273 124.815 68.1639 124.873C68.1006 124.93 68.0227 124.969 67.939 124.985C67.9118 124.989 67.8844 124.991 67.8569 124.991Z" fill="#333333"/>
<path d="M6.74048 63.3949L33.8326 72.9217L49.4864 124.616L58.5502 111.7L58.274 111.501L49.6053 123.851L34.1028 72.6565L6.85164 63.0707L6.74048 63.3949Z" fill="#333333"/>
<path d="M49.4864 125.084C49.4615 125.084 49.4367 125.082 49.412 125.078C49.3271 125.065 49.2476 125.027 49.1828 124.97C49.1179 124.912 49.0703 124.838 49.0452 124.754L33.4607 73.2867L6.59002 63.8379C6.53259 63.8178 6.47965 63.7864 6.43422 63.7455C6.3888 63.7047 6.3518 63.6551 6.32533 63.5997C6.29887 63.5442 6.28348 63.4841 6.28004 63.4226C6.2766 63.3611 6.28517 63.2996 6.30528 63.2415L6.41729 62.9164C6.43717 62.8583 6.46815 62.8049 6.50844 62.759C6.54874 62.7131 6.59757 62.6757 6.65213 62.649C6.7067 62.6222 6.76592 62.6067 6.82643 62.6032C6.88693 62.5997 6.94752 62.6083 7.00472 62.6286L34.2576 72.2135C34.326 72.2376 34.3879 72.2778 34.4383 72.3306C34.4886 72.3835 34.526 72.4476 34.5475 72.5178L49.7754 122.805L57.8986 111.228C57.9336 111.178 57.9781 111.136 58.0294 111.103C58.0807 111.07 58.1378 111.048 58.1976 111.038C58.2573 111.028 58.3185 111.03 58.3775 111.043C58.4366 111.057 58.4923 111.083 58.5416 111.118L58.8187 111.317C58.9179 111.389 58.9849 111.498 59.0052 111.62C59.0256 111.742 58.9976 111.868 58.9273 111.969L49.8592 124.885C49.8172 124.946 49.7615 124.996 49.6966 125.03C49.6318 125.065 49.5597 125.084 49.4864 125.084Z" fill="#333333"/>
<path d="M34.0548 72.9364L58.2448 58.3731V111.772H58.5868V57.7663L33.8838 72.6391L34.0548 72.9347V72.9364Z" fill="#333333"/>
<path d="M58.5826 112.237H58.2406C58.1184 112.237 58.0011 112.188 57.9147 112.101C57.8283 112.013 57.7797 111.894 57.7797 111.77V59.194L34.2909 73.3413C34.1853 73.4039 34.0597 73.4219 33.9411 73.3915C33.8825 73.3763 33.8274 73.3494 33.779 73.3125C33.7305 73.2756 33.6898 73.2294 33.659 73.1766L33.488 72.8809C33.4569 72.8282 33.4364 72.7698 33.4277 72.709C33.4189 72.6482 33.4221 72.5863 33.4371 72.5268C33.452 72.4673 33.4784 72.4113 33.5147 72.3622C33.551 72.313 33.5966 72.2716 33.6487 72.2403L58.3518 57.3675C58.4218 57.3252 58.5016 57.3025 58.5831 57.3017C58.6647 57.3008 58.7449 57.3219 58.8158 57.3628C58.8866 57.4037 58.9455 57.4629 58.9864 57.5344C59.0273 57.6059 59.0488 57.6871 59.0486 57.7698V111.775C59.0488 111.837 59.0369 111.898 59.0138 111.954C58.9907 112.011 58.9567 112.063 58.9139 112.106C58.8711 112.149 58.8202 112.184 58.7643 112.207C58.7083 112.231 58.6483 112.243 58.5878 112.243L58.5826 112.237Z" fill="#333333"/>
<path d="M58.3851 125.317H52.8605H52.7904C51.1004 125.269 49.4789 124.629 48.2021 123.506C47.7461 123.126 47.323 122.708 46.9374 122.255C46.7929 122.082 46.6809 121.943 46.6082 121.845L46.5227 121.731L46.4971 121.692L46.3568 121.789L46.5073 121.709L29.4255 88.768C27.4 85.1907 24.9068 81.9074 22.0138 79.0071L21.8966 79.1311L22.0189 79.0123L6.91832 63.1132L6.79605 63.2319L6.92516 63.121C5.66649 61.6126 4.40441 60.0947 3.10812 58.6133C2.38209 57.8918 1.80426 57.0317 1.408 56.0826C1.01173 55.1335 0.804893 54.1142 0.799424 53.0835C0.808167 52.3087 0.886876 51.5362 1.03457 50.7759C1.03457 50.7517 1.08074 50.5531 1.15257 50.2246C1.69639 47.741 3.982 37.447 6.1308 27.7728C7.20563 22.9374 8.2471 18.2564 9.01924 14.7855L9.94613 10.6167C10.1685 9.61633 10.2941 9.05634 10.2941 9.05201V9.04594C10.6006 7.12039 11.2339 5.26326 12.1659 3.55695C12.6119 2.77572 13.2167 2.09963 13.9402 1.57357C14.6762 1.06122 15.5502 0.791772 16.443 0.802057C16.9927 0.807448 17.5392 0.888221 18.0676 1.04218L18.1129 0.876606L18.0086 1.01184L58.4142 32.9376L99.1276 1.02224L99.0233 0.885276L99.0686 1.05085C99.5984 0.896543 100.146 0.815766 100.698 0.810724C101.59 0.800609 102.464 1.07004 103.2 1.58224C104.293 2.42314 105.134 3.55432 105.63 4.85031C106.188 6.20113 106.596 7.61065 106.846 9.05288V9.05894C106.846 9.05894 106.989 9.70302 107.24 10.8308C108.117 14.7759 110.313 24.6478 112.3 33.5912C113.293 38.0634 114.234 42.3032 114.933 45.4551C115.283 47.0319 115.57 48.3348 115.774 49.2589C115.979 50.183 116.098 50.7326 116.107 50.782C116.254 51.5414 116.333 52.313 116.34 53.087C116.335 54.1178 116.128 55.1372 115.732 56.0865C115.336 57.0358 114.758 57.8961 114.032 58.6176C112.734 60.0973 111.472 61.6161 110.214 63.1253L110.344 63.2362L110.221 63.1175L95.1208 79.0149L95.243 79.1337L95.125 79.0097C92.232 81.91 89.7389 85.1934 87.7133 88.7706L70.6306 121.711L70.782 121.791L70.6417 121.695L70.6152 121.733C70.077 122.466 69.442 123.121 68.7281 123.678C67.4891 124.703 65.9487 125.28 64.3501 125.318H58.3817V125.665H64.3501C66.1186 125.619 67.8162 124.951 69.1531 123.776C69.8209 123.229 70.4156 122.595 70.9222 121.892L70.9282 121.883L88.0151 88.9362C89.3399 86.5222 90.911 84.2559 92.7026 82.1746C93.4534 81.2852 94.1195 80.5562 94.5966 80.0508C94.836 79.7968 95.0241 79.6001 95.1609 79.4666C95.2978 79.3331 95.3645 79.2628 95.3645 79.2628L110.469 63.3593V63.3541C111.729 61.8449 112.988 60.3288 114.281 58.8534C115.034 58.1001 115.633 57.2037 116.044 56.2154C116.455 55.2271 116.669 54.1664 116.675 53.0939C116.667 52.2985 116.587 51.5055 116.436 50.7248C116.421 50.6468 116.265 49.9524 116.008 48.7717C114.189 40.5261 107.173 8.99046 107.173 8.99046L107.007 9.0286L107.174 8.99653C106.86 7.03009 106.212 5.13381 105.259 3.39225C104.79 2.56716 104.153 1.85287 103.391 1.29704C102.599 0.746046 101.658 0.45551 100.698 0.464846C100.116 0.470299 99.5373 0.555445 98.978 0.717971L98.9455 0.726638L58.4142 32.499L18.1967 0.724039L18.1642 0.715371C17.6052 0.552829 17.0271 0.467683 16.4455 0.462247C15.4845 0.453069 14.5439 0.743583 13.7512 1.29444C12.606 2.17136 11.7236 3.35348 11.2022 4.70902C10.6338 6.08356 10.2185 7.51815 9.96409 8.98612L10.1308 9.0182L9.96494 8.98006C9.96494 8.98006 7.67335 19.2784 5.37064 29.6435C4.21886 34.8256 3.06195 40.0251 2.19063 43.9624C1.75454 45.931 1.38771 47.5841 1.12777 48.7622C0.9978 49.3508 0.894335 49.8206 0.821654 50.1492C0.748972 50.4777 0.70793 50.6693 0.700235 50.7127C0.548819 51.4935 0.468391 52.2869 0.459961 53.0827C0.465746 54.1549 0.680206 55.2154 1.09105 56.2034C1.5019 57.1914 2.10105 58.0875 2.85416 58.8404C4.14618 60.314 5.40741 61.8319 6.66608 63.3403V63.3455L21.7718 79.249C21.7718 79.249 21.8428 79.3183 21.9761 79.4527C24.7619 82.2741 27.1644 85.4593 29.1203 88.924L46.2132 121.878L46.2183 121.886C46.7251 122.589 47.3198 123.223 47.9875 123.772C49.3243 124.946 51.022 125.614 52.7904 125.66H52.8622H58.3868L58.3851 125.317Z" fill="#333333"/>
<path d="M64.3536 126.128H58.3852H52.8623H52.793C50.9165 126.085 49.1135 125.38 47.6942 124.134C46.9938 123.559 46.3703 122.893 45.8396 122.154C45.8293 122.138 45.8131 122.113 45.8037 122.096L28.7185 89.1451V89.1399C26.7817 85.7209 24.408 82.5762 21.659 79.7873C21.5461 79.6729 21.4803 79.6078 21.4657 79.594L21.4478 79.5758L6.3378 63.6723C6.32753 63.6619 6.31727 63.6497 6.30787 63.6385L6.00603 63.2761C4.86964 61.9143 3.69733 60.5021 2.50964 59.155C1.71814 58.3607 1.08904 57.4158 0.658393 56.3745C0.227742 55.3333 0.00400494 54.2161 0 53.087C0.00804469 52.2624 0.0910504 51.4403 0.247969 50.6312C0.255379 50.5872 0.296708 50.3939 0.371954 50.0512C0.445491 49.7209 0.548101 49.2494 0.678072 48.6642C0.934594 47.487 1.30484 45.8331 1.74093 43.8644C2.61396 39.9271 3.7683 34.7277 4.92094 29.5455C7.17748 19.3885 9.4229 9.29559 9.51268 8.8951C9.77229 7.39523 10.1974 5.9297 10.7799 4.5261C11.3337 3.08872 12.2732 1.83715 13.4922 0.913008C14.3607 0.309511 15.391 -0.00911522 16.4439 0.000198511C17.067 0.00583739 17.6865 0.0965179 18.2857 0.269794L18.3174 0.278465C18.3758 0.295054 18.4307 0.3227 18.479 0.359948L58.4109 31.9138L98.6583 0.359948C98.706 0.322987 98.7603 0.295624 98.8182 0.279331L98.8498 0.27066C99.4493 0.0974619 100.069 0.00678699 100.692 0.00106821C101.745 -0.00813372 102.776 0.310479 103.644 0.913875C104.461 1.50467 105.145 2.26499 105.65 3.14432C106.636 4.92741 107.304 6.87308 107.622 8.89163C107.769 9.55305 114.666 40.5599 116.457 48.6651C116.817 50.2983 116.877 50.5722 116.884 50.6338C117.04 51.443 117.123 52.2651 117.131 53.0896C117.127 54.2187 116.903 55.336 116.472 56.3772C116.042 57.4185 115.412 58.3634 114.621 59.1576C113.434 60.5117 112.256 61.9247 111.115 63.2917L110.817 63.6497L110.793 63.6757L95.6869 79.5792L95.6664 79.6C95.6664 79.6 95.5971 79.6676 95.4748 79.7925C95.3525 79.9173 95.1542 80.1202 94.9173 80.3698C94.4898 80.8266 93.8057 81.5626 93.0404 82.4754C91.2755 84.5291 89.7257 86.7632 88.4162 89.1416L88.4111 89.1512L71.3242 122.098C71.3171 122.112 71.3091 122.126 71.3002 122.14L71.2788 122.171C70.7499 122.904 70.1296 123.564 69.4336 124.136C68.0194 125.377 66.2236 126.082 64.3536 126.128ZM58.3852 124.85H64.3553C65.8524 124.818 67.295 124.274 68.4494 123.307C69.1279 122.777 69.732 122.155 70.2451 121.459L87.3063 88.5574L87.314 88.5435C89.357 84.9288 91.8749 81.6122 94.7985 78.6846L109.878 62.8089L110.141 62.4925C111.292 61.1116 112.483 59.6847 113.688 58.3081C114.375 57.628 114.923 56.8165 115.3 55.9205C115.676 55.0245 115.873 54.0617 115.88 53.0879C115.872 52.3427 115.796 51.5999 115.654 50.8687C115.646 50.8279 115.554 50.4058 115.324 49.3629C115.121 48.4389 114.832 47.1342 114.482 45.56C113.784 42.4081 112.843 38.1674 111.849 33.6961C109.999 25.3629 107.967 16.2253 106.988 11.8242L106.789 10.9348C106.503 9.6458 106.422 9.28779 106.398 9.1751L106.391 9.14215C106.148 7.73451 105.751 6.35886 105.206 5.04102C104.746 3.82401 103.961 2.76086 102.939 1.97058C102.28 1.50948 101.496 1.26716 100.696 1.27709C100.227 1.28163 99.7604 1.34599 99.3073 1.46867L58.6913 33.3077C58.6103 33.3714 58.5108 33.406 58.4083 33.406C58.3058 33.406 58.2062 33.3714 58.1253 33.3077L17.8325 1.4652C17.38 1.34244 16.914 1.27808 16.4456 1.27362C15.6452 1.26357 14.8614 1.50591 14.2028 1.96711C13.5333 2.45537 12.974 3.08241 12.5619 3.8066C11.6532 5.46022 11.0398 7.26355 10.75 9.13349L10.744 9.16036L10.3977 10.7207L6.58235 27.8812C3.6751 40.9639 2.05046 48.3071 1.60412 50.3278C1.53571 50.6416 1.49466 50.8331 1.48782 50.8661C1.34563 51.5972 1.26978 52.3401 1.26123 53.0852C1.26868 54.0588 1.46616 55.0213 1.8423 55.9171C2.21844 56.8129 2.76579 57.6243 3.45278 58.3046C4.64988 59.6734 5.83843 61.0942 6.98594 62.4656L7.26469 62.8002L22.3413 78.6734C25.2676 81.6022 27.787 84.9213 29.8301 88.5392L29.8352 88.5478L46.905 121.462C46.9178 121.48 46.9435 121.516 46.9785 121.562C47.041 121.649 47.1496 121.781 47.2881 121.949C47.6566 122.381 48.0608 122.781 48.4963 123.144C49.693 124.193 51.2088 124.795 52.7905 124.848H52.858H58.3878L58.3852 124.85Z" fill="#333333"/>
<path d="M105.712 4.83301L86.015 32.8457H31.1193L11.315 5.11387L11.0405 5.31585L30.9483 33.1899H86.186L105.982 5.03239L105.706 4.83301H105.712Z" fill="#333333"/>
<path d="M86.193 33.6571H30.951C30.8781 33.6572 30.8061 33.6398 30.7412 33.6062C30.6762 33.5725 30.62 33.5238 30.5773 33.4638L10.6661 5.59064C10.5945 5.49022 10.5651 5.36513 10.5844 5.24277C10.6036 5.12041 10.6699 5.01078 10.7687 4.93789L11.0441 4.73591C11.1424 4.66255 11.2653 4.63141 11.3861 4.64923C11.4458 4.65886 11.5031 4.68036 11.5546 4.7125C11.6061 4.74463 11.6508 4.78676 11.6862 4.83647L31.3597 32.3785H85.78L105.336 4.56167C105.408 4.46085 105.515 4.39275 105.636 4.37228C105.757 4.35181 105.88 4.38063 105.98 4.45245L106.256 4.65269C106.356 4.72498 106.423 4.83402 106.443 4.9561C106.453 5.0163 106.451 5.07795 106.438 5.13747C106.424 5.19699 106.399 5.25321 106.364 5.30284L86.5683 33.4595C86.5259 33.5204 86.4696 33.5701 86.4043 33.6045C86.339 33.6389 86.2666 33.6569 86.193 33.6571Z" fill="#333333"/>
<path d="M13.4956 1.73044L45.3958 33.1378L45.6318 32.8908L13.7325 1.48425" fill="#333333"/>
<path d="M45.3958 33.6059C45.2756 33.6059 45.1603 33.5583 45.0743 33.4733L13.1741 2.06592C13.0865 1.97958 13.0362 1.86149 13.0345 1.73762C13.0327 1.61375 13.0795 1.49424 13.1647 1.40537C13.2053 1.36329 13.2531 1.32894 13.3058 1.30395C13.3279 1.24969 13.3601 1.20025 13.4007 1.15831C13.486 1.06943 13.6026 1.0185 13.7249 1.01671C13.8473 1.01492 13.9653 1.06242 14.0531 1.14878L45.9524 32.5587C45.996 32.6014 46.0308 32.6523 46.0549 32.7087C46.079 32.765 46.0919 32.8256 46.0927 32.887C46.0936 32.9484 46.0825 33.0094 46.06 33.0664C46.0376 33.1234 46.0042 33.1754 45.9618 33.2193L45.725 33.4664C45.6822 33.5108 45.6309 33.5461 45.5744 33.5701C45.5178 33.5941 45.4571 33.6063 45.3958 33.6059Z" fill="#333333"/>
<path d="M103.158 1.3031L71.4346 32.8986L71.6723 33.1439L103.395 1.54842" fill="#333333"/>
<path d="M71.6705 33.6077C71.6099 33.6071 71.55 33.5944 71.4942 33.5703C71.4384 33.5462 71.3879 33.5112 71.3455 33.4672L71.1078 33.2228C71.0222 33.1342 70.9747 33.0148 70.9758 32.8908C70.977 32.7668 71.0266 32.6483 71.1138 32.5614L102.837 0.965894C102.88 0.922862 102.931 0.888903 102.988 0.865958C103.044 0.843014 103.104 0.831535 103.165 0.832179C103.225 0.832823 103.285 0.84558 103.341 0.869715C103.397 0.893849 103.447 0.92889 103.489 0.972832C103.53 1.015 103.562 1.06438 103.584 1.11846C103.638 1.14249 103.686 1.17628 103.727 1.21815C103.77 1.26195 103.803 1.31381 103.826 1.37078C103.849 1.42774 103.86 1.48868 103.859 1.55012C103.859 1.61156 103.846 1.67228 103.823 1.72881C103.799 1.78534 103.764 1.83657 103.721 1.87957L71.9979 33.4751C71.9104 33.5615 71.7927 33.6092 71.6705 33.6077Z" fill="#333333"/>
<path d="M30.9067 32.909L6.66455 63.1244L6.92791 63.342L31.1701 33.1266" fill="#333333"/>
<path d="M6.92705 63.8092C6.82104 63.8089 6.71839 63.7715 6.63633 63.7035L6.37296 63.4868C6.2781 63.4082 6.2178 63.2948 6.2053 63.1713C6.1928 63.0478 6.22911 62.9243 6.30627 62.8279L30.5484 32.6142C30.5866 32.5665 30.6337 32.527 30.687 32.4977C30.7403 32.4685 30.7988 32.4503 30.8591 32.444C30.9194 32.4377 30.9803 32.4435 31.0383 32.4611C31.0964 32.4788 31.1505 32.5078 31.1974 32.5466C31.2429 32.5834 31.2809 32.6287 31.3094 32.6801C31.365 32.6993 31.4166 32.7287 31.4616 32.7668C31.5565 32.8451 31.6167 32.9584 31.6292 33.0818C31.6417 33.2051 31.6055 33.3285 31.5283 33.4248L7.28447 63.6358C7.24658 63.6843 7.19953 63.7246 7.14608 63.7543C7.09264 63.7841 7.03387 63.8028 6.97323 63.8092C6.95785 63.8102 6.94243 63.8102 6.92705 63.8092Z" fill="#333333"/>
<path d="M110.48 63.1244L86.2375 32.909L85.9741 33.1266L110.216 63.3411" fill="#333333"/>
<path d="M110.216 63.8093C110.148 63.8091 110.08 63.7935 110.018 63.7635C109.956 63.7335 109.901 63.6899 109.858 63.6359L85.6167 33.4204C85.5396 33.3243 85.5033 33.2011 85.5159 33.0779C85.5284 32.9547 85.5886 32.8416 85.6834 32.7634L85.9459 32.5466C86.041 32.4684 86.1628 32.4316 86.2846 32.4443C86.4064 32.457 86.5183 32.5181 86.5957 32.6143L110.838 62.8288C110.915 62.9252 110.951 63.0487 110.939 63.1722C110.926 63.2957 110.866 63.4091 110.771 63.4876C110.726 63.5257 110.675 63.5551 110.619 63.5743C110.591 63.6258 110.552 63.6711 110.507 63.7078C110.424 63.7745 110.322 63.8103 110.216 63.8093Z" fill="#333333"/>
<path d="M82.9165 72.9512L110.404 63.3966L110.293 63.0715L82.8062 72.6261" fill="#333333"/>
<path d="M82.9173 73.4193C82.8548 73.4195 82.793 73.4068 82.7355 73.3819C82.678 73.3571 82.6262 73.3207 82.583 73.2748C82.5399 73.229 82.5064 73.1747 82.4847 73.1154C82.4629 73.056 82.4533 72.9928 82.4564 72.9295C82.4185 72.8847 82.3895 72.8329 82.3709 72.7769C82.3315 72.6598 82.3395 72.5316 82.3932 72.4204C82.4469 72.3092 82.5419 72.2242 82.6574 72.184L110.145 62.6294C110.26 62.5891 110.387 62.5969 110.497 62.6512C110.607 62.7055 110.691 62.8018 110.731 62.9189L110.841 63.2449C110.88 63.3621 110.872 63.4905 110.818 63.6018C110.765 63.7131 110.67 63.7983 110.554 63.8387L83.067 73.3933C83.0189 73.4105 82.9683 73.4193 82.9173 73.4193Z" fill="#333333"/>
</svg>
