<svg width="337" height="99" viewBox="0 0 337 99" fill="none" xmlns="http://www.w3.org/2000/svg">
<g clip-path="url(#clip0_215_10324)">
<g clip-path="url(#clip1_215_10324)">
<path d="M323.836 98.505H12.4984C5.64899 98.505 0.0449219 92.9641 0.0449219 86.1919V12.3131C0.0449219 5.54089 5.64899 -1.43051e-05 12.4984 -1.43051e-05H323.836C330.685 -1.43051e-05 336.289 5.54089 336.289 12.3131V86.1919C336.289 92.9641 330.685 98.505 323.836 98.505Z" fill="#100F0D"/>
<path d="M323.836 -1.43051e-05H12.4984C5.64899 -1.43051e-05 0.0449219 5.54089 0.0449219 12.3131V86.1919C0.0449219 92.9641 5.64899 98.505 12.4984 98.505H323.836C330.685 98.505 336.289 92.9641 336.289 86.1919V12.3131C336.289 5.54089 330.685 -1.43051e-05 323.836 -1.43051e-05ZM323.836 1.9691C329.604 1.9691 334.297 6.60967 334.297 12.3131V86.1919C334.297 91.8953 329.604 96.5358 323.836 96.5358H12.4984C6.72991 96.5358 2.03845 91.8953 2.03845 86.1919V12.3131C2.03845 6.60967 6.72991 1.9691 12.4984 1.9691H323.836Z" fill="#A2A2A1"/>
<path d="M51.6452 47.8345L25.1279 75.6622C25.1289 75.668 25.1309 75.6728 25.1319 75.6786C25.9451 78.7001 28.7365 80.9251 32.0493 80.9251C33.3736 80.9251 34.617 80.5711 35.6833 79.9497L35.7679 79.9006L65.6165 62.871L51.6452 47.8345" fill="#EB3131"/>
<path d="M78.4728 43.096L78.4474 43.0787L65.561 35.6926L51.043 48.4657L65.6116 62.8681L78.4299 55.5554C80.6773 54.3558 82.2029 52.0134 82.2029 49.3121C82.2029 46.6303 80.6977 44.2994 78.4728 43.096" fill="#F6B60B"/>
<path d="M25.127 22.8465C24.9676 23.4277 24.8838 24.0365 24.8838 24.6686V73.8413C24.8838 74.4723 24.9666 75.0831 25.128 75.6622L52.5578 48.5465L25.127 22.8465Z" fill="#5778C5"/>
<path d="M51.8407 49.2544L65.5659 35.6878L35.7513 18.5967C34.6676 17.9549 33.4028 17.5846 32.0494 17.5846C28.7365 17.5846 25.9414 19.8135 25.1279 22.8388C25.127 22.8418 25.127 22.8438 25.127 22.8465L51.8407 49.2544Z" fill="#3BAD49"/>
</g>
<path d="M118.357 25.4724C118.357 27.5357 117.739 29.1788 116.501 30.4044C115.096 31.8619 113.263 32.5911 111.011 32.5911C108.854 32.5911 107.02 31.8523 105.512 30.3727C104.001 28.8941 103.247 27.0606 103.247 24.873C103.247 22.6844 104.001 20.8519 105.512 19.3723C107.02 17.8938 108.854 17.154 111.011 17.154C112.081 17.154 113.106 17.3608 114.079 17.7736C115.052 18.1873 115.832 18.7365 116.416 19.4243L115.102 20.7239C114.113 19.5551 112.751 18.9712 111.011 18.9712C109.438 18.9712 108.078 19.5176 106.93 20.6113C105.781 21.7062 105.208 23.126 105.208 24.873C105.208 26.62 105.781 28.0398 106.93 29.1347C108.078 30.2284 109.438 30.7748 111.011 30.7748C112.68 30.7748 114.071 30.2254 115.185 29.1251C115.908 28.4082 116.326 27.4118 116.438 26.1322H111.011V24.3573H118.253C118.323 24.7432 118.357 25.1136 118.357 25.4724" fill="white"/>
<path d="M118.357 25.4726H118.108C118.106 27.4888 117.51 29.0549 116.325 30.2306L116.323 30.2325L116.322 30.2345C114.96 31.6417 113.211 32.3421 111.011 32.345C108.912 32.3421 107.154 31.634 105.687 30.1988C104.223 28.7606 103.499 27.0049 103.496 24.8732C103.499 22.7405 104.223 20.9859 105.687 19.5487C107.154 18.1124 108.912 17.4034 111.011 17.4005C112.049 17.4005 113.038 17.6007 113.981 17.9999C114.924 18.402 115.67 18.929 116.225 19.5834L116.416 19.4245L116.24 19.2504L114.926 20.551L115.102 20.7241L115.294 20.5665C114.259 19.3398 112.805 18.7214 111.011 18.7251C109.38 18.7232 107.944 19.2994 106.757 20.4347C105.559 21.5737 104.957 23.0732 104.959 24.8732C104.957 26.6732 105.559 28.1727 106.757 29.3117C107.944 30.447 109.38 31.0233 111.011 31.0213C112.735 31.0243 114.204 30.446 115.361 29.2994C116.134 28.5335 116.572 27.4726 116.687 26.1536L116.71 25.8861H111.26V24.6038H118.253V24.3575L118.008 24.4009C118.076 24.7742 118.108 25.1291 118.108 25.4726H118.357H118.606C118.606 25.0983 118.571 24.7136 118.498 24.3135L118.461 24.1113H110.762V26.1324V26.3787H116.438V26.1324L116.19 26.1112C116.08 27.3504 115.681 28.2836 115.009 28.9512C113.939 30.0055 112.625 30.5258 111.011 30.5288C109.496 30.5268 108.211 30.0111 107.103 28.9578C106.005 27.9082 105.459 26.5683 105.457 24.8732C105.459 23.1782 106.005 21.8382 107.103 20.7886C108.211 19.7353 109.496 19.2196 111.011 19.2177C112.695 19.2216 113.967 19.7718 114.912 20.8829L115.087 21.0888L116.592 19.5986L116.754 19.4391L116.607 19.2667C115.995 18.5454 115.179 17.9728 114.177 17.5477C113.173 17.1214 112.113 16.9079 111.011 16.9079C108.797 16.9059 106.886 17.6755 105.336 19.1985C103.78 20.7184 102.996 22.629 102.998 24.8732C102.996 27.1165 103.78 29.028 105.337 30.549C106.886 32.0709 108.797 32.8395 111.011 32.8376C113.317 32.8395 115.23 32.0823 116.682 30.5748L116.501 30.4047L116.678 30.5788C117.968 29.3041 118.608 27.5822 118.606 25.4726H118.357Z" fill="white"/>
<path d="M129.838 19.3004H123.032V23.9854H129.169V25.761H123.032V30.446H129.838V32.2613H121.113V17.4852H129.838V19.3004Z" fill="white"/>
<path d="M129.838 19.3004V19.0541H122.783V24.2316H128.92V25.514L122.783 25.5147V30.6922H129.589V32.015H121.362V17.7314H129.589V19.3004H129.838V19.0541V19.3004H130.087V17.4851V17.2388H120.864V32.5075H130.087V30.446V30.1997H123.281V26.0072H129.419V23.9854V23.7391H123.281V19.5466H130.087V19.3004H129.838" fill="white"/>
<path d="M137.936 32.2613H136.014V19.3004H131.84V17.4852H142.11V19.3004H137.936V32.2613Z" fill="white"/>
<path d="M137.936 32.2612V32.015H136.263V19.0541H132.089V17.7314H141.861V19.0541H137.687V32.2612H137.936V32.015V32.2612H138.185V19.5466H142.359V17.4851V17.2388H131.591V19.3004V19.5466H135.765V32.5075H137.936H138.185V32.2612H137.936" fill="white"/>
<path d="M149.541 32.2613V17.4852H151.46V32.2613H149.541Z" fill="white"/>
<path d="M149.54 32.2612H149.789V17.7314H151.211V32.015H149.54V32.2612H149.789H149.54V32.5075H151.46H151.709V17.2388H149.54H149.291V32.5075H149.54V32.2612Z" fill="white"/>
<path d="M159.978 32.2613H158.057V19.3004H153.883V17.4852H164.152V19.3004H159.978V32.2613Z" fill="white"/>
<path d="M159.978 32.2612V32.015H158.306V19.0541H154.132V17.7314H163.903V19.0541H159.729V32.2612H159.978V32.015V32.2612H160.227V19.5466H164.401V17.4851V17.2388H153.634V19.3004V19.5466H157.808V32.5075H159.978H160.227V32.2612H159.978" fill="white"/>
<path d="M174.053 29.1145C175.159 30.2217 176.513 30.7748 178.113 30.7748C179.714 30.7748 181.068 30.2217 182.172 29.1145C183.279 28.0073 183.834 26.592 183.834 24.873C183.834 23.1541 183.279 21.7387 182.172 20.6315C181.068 19.5243 179.714 18.9712 178.113 18.9712C176.513 18.9712 175.159 19.5243 174.053 20.6315C172.949 21.7387 172.394 23.1541 172.394 24.873C172.394 26.592 172.949 28.0073 174.053 29.1145ZM183.593 30.3515C182.123 31.8454 180.296 32.5911 178.113 32.5911C175.928 32.5911 174.101 31.8454 172.635 30.3515C171.165 28.8594 170.434 27.0328 170.434 24.873C170.434 22.7132 171.165 20.8864 172.635 19.3945C174.101 17.9004 175.928 17.154 178.113 17.154C180.285 17.154 182.107 17.9043 183.583 19.4041C185.057 20.9039 185.795 22.7268 185.795 24.873C185.795 27.0328 185.059 28.8594 183.593 30.3515Z" fill="white"/>
<path d="M174.053 29.1147L173.876 29.2878C175.023 30.4394 176.454 31.0243 178.113 31.0213C179.771 31.0243 181.204 30.4394 182.349 29.2878C183.504 28.1353 184.085 26.6441 184.083 24.8732C184.085 23.1023 183.504 21.6112 182.349 20.4586C181.204 19.3071 179.771 18.7222 178.113 18.7251C176.454 18.7222 175.023 19.3071 173.876 20.4586C172.724 21.6112 172.142 23.1023 172.145 24.8732C172.142 26.6441 172.724 28.1353 173.876 29.2878L174.053 29.1147L174.23 28.9416C173.173 27.8784 172.645 26.5412 172.643 24.8732C172.645 23.2052 173.173 21.868 174.23 20.8049C175.296 19.742 176.57 19.2206 178.113 19.2177C179.655 19.2206 180.932 19.742 181.995 20.8049C183.054 21.868 183.582 23.2052 183.584 24.8732C183.582 26.5412 183.054 27.8784 181.995 28.9416C180.932 30.0045 179.655 30.5258 178.113 30.5288C176.57 30.5258 175.296 30.0045 174.23 28.9416L174.053 29.1147ZM183.593 30.3517L183.415 30.1806C181.987 31.6274 180.24 32.3421 178.113 32.345C175.985 32.3421 174.239 31.6274 172.813 30.1806L172.807 30.1729L172.813 30.1806C171.388 28.7288 170.685 26.9781 170.683 24.8732C170.685 22.7684 171.388 21.0176 172.813 19.5659C174.239 18.1191 175.985 17.4034 178.113 17.4005C180.226 17.4034 181.969 18.122 183.405 19.5765C184.835 21.0349 185.543 22.7829 185.546 24.8732C185.543 26.9781 184.837 28.7288 183.415 30.1806L183.593 30.3517L183.772 30.5229C185.282 28.9896 186.046 27.0877 186.044 24.8732C186.046 22.6713 185.279 20.7733 183.762 19.2332C182.244 17.6871 180.343 16.9052 178.113 16.9079C175.871 16.9052 173.965 17.6834 172.456 19.2236V19.2226C170.944 20.7568 170.183 22.6588 170.185 24.8732C170.183 27.0877 170.944 28.9896 172.456 30.5239L172.463 30.5308L172.456 30.5229C173.965 32.063 175.871 32.8395 178.113 32.8376C180.354 32.8395 182.261 32.063 183.772 30.5229L183.593 30.3517" fill="white"/>
<path d="M188.49 32.2613V17.4852H190.827L198.09 28.98H198.173L198.09 26.1324V17.4852H200.012V32.2613H198.007L190.408 20.2094H190.326L190.408 23.058V32.2613H188.49Z" fill="white"/>
<path d="M188.489 32.2612H188.738V17.7314H190.688L197.951 29.2262H198.172H198.428L198.339 26.1286V17.7314H199.762V32.015H198.145L190.546 19.9631H190.325H190.069L190.159 23.0619V32.015H188.489V32.2612H188.738H188.489V32.5075H190.408H190.657V23.054L190.574 20.2027L190.325 20.2093V20.4556H190.408V20.2093L190.197 20.3403L197.869 32.5075H200.011H200.26V17.2388H198.089H197.84V26.1353L197.923 28.9866L198.172 28.9799V28.7337H198.089V28.9799L198.301 28.8492L190.964 17.2388H188.489H188.24V32.5075H188.489V32.2612Z" fill="white"/>
<path d="M266.601 74.1269H271.249V43.3404H266.601V74.1269ZM308.464 54.4303L303.136 67.7778H302.976L297.447 54.4303H292.441L300.732 73.0859L296.005 83.4629H300.854L313.632 54.4303H308.464ZM282.106 70.6301C280.582 70.6301 278.46 69.8778 278.46 68.0155C278.46 65.6392 281.105 64.7283 283.387 64.7283C285.432 64.7283 286.39 65.1639 287.633 65.7587C287.272 68.61 284.789 70.6301 282.106 70.6301V70.6301ZM282.667 53.7568C279.302 53.7568 275.817 55.2228 274.375 58.4706L278.5 60.1733C279.381 58.4706 281.023 57.9155 282.747 57.9155C285.15 57.9155 287.594 59.3422 287.633 61.877V62.1935C286.792 61.7182 284.991 61.0055 282.786 61.0055C278.34 61.0055 273.812 63.4209 273.812 67.9364C273.812 72.0558 277.459 74.7098 281.543 74.7098C284.669 74.7098 286.39 73.3236 287.474 71.6999H287.633V74.0759H292.119V62.2723C292.119 56.8073 287.995 53.7568 282.667 53.7568V53.7568ZM253.943 58.178H247.333V47.6252H253.943C257.418 47.6252 259.391 50.4696 259.391 52.9015C259.391 55.2873 257.418 58.178 253.943 58.178ZM253.824 43.3404H242.688V74.1269H247.333V62.4629H253.824C258.975 62.4629 264.038 58.7755 264.038 52.9015C264.038 47.0277 258.975 43.3404 253.824 43.3404ZM193.096 70.6358C189.886 70.6358 187.197 67.9778 187.197 64.3271C187.197 60.638 189.886 57.9397 193.096 57.9397C196.266 57.9397 198.754 60.638 198.754 64.3271C198.754 67.9778 196.266 70.6358 193.096 70.6358V70.6358ZM198.433 56.1542H198.273C197.23 54.9246 195.222 53.8137 192.695 53.8137C187.398 53.8137 182.543 58.4157 182.543 64.3271C182.543 70.1992 187.398 74.7618 192.695 74.7618C195.222 74.7618 197.23 73.6506 198.273 72.3818H198.433V73.8892C198.433 77.897 196.266 80.0393 192.775 80.0393C189.927 80.0393 188.161 78.0152 187.438 76.3096L183.386 77.9758C184.549 80.753 187.639 84.1653 192.775 84.1653C198.233 84.1653 202.847 80.9907 202.847 73.2544V54.4485H198.433V56.1542ZM206.057 74.1269H210.712V43.3394H206.057V74.1269ZM217.574 63.9703C217.453 59.9231 220.744 57.8606 223.111 57.8606C224.958 57.8606 226.523 58.7725 227.043 60.0829L217.574 63.9703ZM232.02 60.4792C231.138 58.1377 228.448 53.8137 222.951 53.8137C217.493 53.8137 212.959 58.0588 212.959 64.2877C212.959 70.1598 217.453 74.7618 223.472 74.7618C228.328 74.7618 231.138 71.8258 232.301 70.1201L228.689 67.7392C227.486 69.4852 225.84 70.6358 223.472 70.6358C221.105 70.6358 219.42 69.5643 218.336 67.4621L232.5 61.6691L232.02 60.4792ZM119.168 57.0275V61.4709H129.922C129.6 63.9703 128.758 65.7951 127.474 67.0649C125.909 68.6127 123.461 70.3184 119.168 70.3184C112.547 70.3184 107.37 65.0418 107.37 58.4955C107.37 51.9492 112.547 46.6719 119.168 46.6719C122.739 46.6719 125.347 48.0608 127.273 49.8463L130.443 46.7123C127.755 44.1725 124.183 42.2284 119.168 42.2284C110.099 42.2284 102.475 49.5288 102.475 58.4955C102.475 67.4621 110.099 74.7618 119.168 74.7618C124.064 74.7618 127.755 73.1756 130.644 70.1992C133.613 67.2631 134.536 63.1372 134.536 59.8049C134.536 58.7725 134.456 57.8212 134.295 57.0275H119.168ZM146.763 70.6358C143.552 70.6358 140.783 68.0172 140.783 64.2877C140.783 60.5186 143.552 57.9397 146.763 57.9397C149.972 57.9397 152.741 60.5186 152.741 64.2877C152.741 68.0172 149.972 70.6358 146.763 70.6358V70.6358ZM146.763 53.8137C140.903 53.8137 136.128 58.2174 136.128 64.2877C136.128 70.3183 140.903 74.7618 146.763 74.7618C152.621 74.7618 157.396 70.3183 157.396 64.2877C157.396 58.2174 152.621 53.8137 146.763 53.8137ZM169.96 70.6358C166.75 70.6358 163.981 68.0172 163.981 64.2877C163.981 60.5186 166.75 57.9397 169.96 57.9397C173.169 57.9397 175.938 60.5186 175.938 64.2877C175.938 68.0172 173.169 70.6358 169.96 70.6358ZM169.96 53.8137C164.101 53.8137 159.326 58.2174 159.326 64.2877C159.326 70.3183 164.101 74.7618 169.96 74.7618C175.818 74.7618 180.593 70.3183 180.593 64.2877C180.593 58.2174 175.818 53.8137 169.96 53.8137Z" fill="white"/>
</g>
<defs>
<clipPath id="clip0_215_10324">
<rect width="337" height="99" fill="white"/>
</clipPath>
<clipPath id="clip1_215_10324">
<rect width="337" height="99" fill="white" transform="translate(0.0449219)"/>
</clipPath>
</defs>
</svg>
