<svg width="64" height="65" viewBox="0 0 64 65" fill="none" xmlns="http://www.w3.org/2000/svg">
<path d="M32 64.961C14.3525 64.961 0 50.3838 0 32.4746C0 14.5654 14.3525 0 32 0C49.6475 0 64 14.5654 64 32.4746C64 50.3838 49.6475 64.9491 32 64.9491V64.961ZM32 3.49854C16.2521 3.48664 3.43569 16.4931 3.43569 32.4746C3.43569 48.456 16.2521 61.4625 32 61.4625C47.7479 61.4625 60.5643 48.456 60.5643 32.4746C60.5643 16.4931 47.7596 3.48664 32 3.48664V3.49854Z" fill="#4E4E4E"/>
<path d="M50.3986 20.6223C49.2143 21.1697 47.9127 21.491 46.6346 21.7171C47.2443 21.61 48.1355 20.5033 48.499 20.0511C49.0501 19.3609 49.4957 18.5755 49.7537 17.7306C49.7889 17.6592 49.8123 17.5759 49.7537 17.5283C49.6716 17.4927 49.6247 17.5165 49.5543 17.5403C48.1238 18.3137 46.6463 18.8849 45.075 19.2776C44.9461 19.3133 44.8523 19.2776 44.7702 19.1943C44.6412 19.0396 44.5122 18.9087 44.3832 18.7897C43.7266 18.2185 43.0113 17.7663 42.2139 17.4451C41.1703 17.0167 40.0212 16.8263 38.8838 16.8977C37.7815 16.9691 36.7028 17.2904 35.7295 17.802C34.7563 18.3256 33.8768 19.0396 33.185 19.9083C32.4697 20.8127 31.942 21.8718 31.6606 23.0023C31.4026 24.0851 31.4144 25.168 31.5785 26.2628C31.602 26.4413 31.5785 26.4651 31.4261 26.4413C25.2817 25.5131 20.181 23.276 16.0417 18.4922C15.8658 18.2899 15.7603 18.2899 15.6196 18.5041C13.8138 21.253 14.6932 25.6797 16.9446 27.8574C17.2495 28.143 17.5543 28.4405 17.8944 28.7023C17.7771 28.7261 16.2645 28.5595 14.9277 27.8574C14.7519 27.7384 14.658 27.8098 14.6463 28.0121C14.6346 28.3096 14.6463 28.5833 14.6932 28.9046C15.045 31.701 16.9446 34.2833 19.5595 35.2829C19.8644 35.4138 20.2161 35.5328 20.5445 35.5922C19.9464 35.7231 19.3367 35.8183 17.6364 35.6874C17.4254 35.6517 17.3433 35.7588 17.4254 35.9611C18.7035 39.5073 21.4708 40.5545 23.5463 41.1614C23.8277 41.209 24.0974 41.209 24.3788 41.2804C24.3671 41.3042 24.3436 41.3042 24.3319 41.328C23.6401 42.387 21.2597 43.1843 20.1575 43.577C18.1406 44.291 15.9479 44.6123 13.8138 44.3981C13.4737 44.3505 13.4034 44.3505 13.3096 44.3981C13.2158 44.4576 13.2978 44.5409 13.4034 44.6242C13.8372 44.9098 14.2711 45.1716 14.7284 45.4215C16.0769 46.1474 17.4957 46.7305 18.9732 47.147C26.595 49.277 35.1784 47.7181 40.9006 41.9467C45.3917 37.4129 46.9629 31.1655 46.9629 24.9181C46.9629 24.6682 47.2443 24.5373 47.4202 24.4064C48.5928 23.514 49.5192 22.443 50.3869 21.253C50.5862 20.9912 50.5745 20.7532 50.5745 20.6461V20.6104C50.5745 20.5152 50.5862 20.539 50.4338 20.6104L50.3986 20.6223Z" fill="#4E4E4E"/>
</svg>
