<svg width="64" height="65" viewBox="0 0 64 65" fill="none" xmlns="http://www.w3.org/2000/svg">
<path d="M32 64.961C14.3525 64.961 0 50.3957 0 32.4865C0 14.5773 14.3525 0 32 0C49.6475 0 64 14.5654 64 32.4746C64 50.3838 49.6475 64.9491 32 64.9491V64.961ZM32 3.49854C16.2521 3.49854 3.4357 16.505 3.4357 32.4865C3.4357 48.4679 16.2521 61.4744 32 61.4744C47.7479 61.4744 60.5643 48.4679 60.5643 32.4865C60.5643 16.505 47.7479 3.49854 32 3.49854Z" fill="#4E4E4E"/>
<path fill-rule="evenodd" clip-rule="evenodd" d="M33.5122 11.3403C22.8533 11.3403 14.1879 20.1342 14.1879 30.9511C14.1879 34.7591 15.2549 38.4123 17.2718 41.5777L14.3403 48.1345C14.0706 48.7414 14.1644 49.4434 14.5983 49.9551C14.9266 50.3478 15.3956 50.562 15.8764 50.562C16.0288 50.562 16.1696 50.5382 16.322 50.5025L24.4128 48.2535C27.2036 49.7647 30.3344 50.562 33.5122 50.562C44.171 50.562 52.8365 41.7681 52.8365 30.9511C52.8365 20.1342 44.171 11.3403 33.5122 11.3403ZM33.5122 47.1349C30.6862 47.1349 27.9189 46.3733 25.4799 44.9334C25.2219 44.7787 24.9288 44.6954 24.6239 44.6954C24.4715 44.6954 24.3191 44.7192 24.1783 44.7549L18.8899 46.2305L20.7309 42.1132C20.9772 41.5539 20.9185 40.8994 20.5667 40.3996C18.5968 37.6269 17.5532 34.3664 17.5532 30.9392C17.5532 22.0144 24.706 14.7555 33.5004 14.7555C42.2948 14.7555 49.4477 22.0144 49.4477 30.9392C49.4477 39.8641 42.2948 47.123 33.5004 47.123L33.5122 47.1349Z" fill="#4E4E4E"/>
<path fill-rule="evenodd" clip-rule="evenodd" d="M40.9349 33.8782C40.1259 33.3903 39.0705 32.8429 38.1207 33.2356C37.3937 33.545 36.9247 34.6993 36.4439 35.2943C36.1977 35.6037 35.9163 35.6513 35.541 35.4966C32.7972 34.3899 30.6865 32.5216 29.1739 29.9632C28.9159 29.5705 28.9628 29.2492 29.2677 28.8803C29.725 28.3329 30.2995 27.7141 30.4285 26.9763C30.5575 26.2385 30.2174 25.3818 29.9126 24.7273C29.5256 23.8943 29.1035 22.6924 28.2709 22.2164C27.5088 21.7761 26.5121 22.026 25.832 22.5853C24.6594 23.5492 24.0965 25.0724 24.12 26.5717C24.12 27.0001 24.1786 27.4285 24.2724 27.8331C24.5069 28.8208 24.9643 29.749 25.4685 30.6296C25.8554 31.296 26.2658 31.9385 26.7114 32.5573C28.1772 34.5803 30.0064 36.3415 32.117 37.6504C33.1724 38.3049 34.3098 38.888 35.4941 39.2807C36.8191 39.721 37.9917 40.1851 39.4223 39.9114C40.9115 39.6258 42.389 38.6857 42.987 37.2221C43.1629 36.7937 43.2449 36.3058 43.1511 35.8536C42.9518 34.9135 41.6854 34.3423 40.9349 33.8901V33.8782Z" fill="#4E4E4E"/>
</svg>
