<svg width="64" height="64" viewBox="0 0 64 64" fill="none" xmlns="http://www.w3.org/2000/svg">
<path d="M32 64C14.3534 64 0 49.6493 0 32.0059C0 14.3625 14.3534 0 32 0C49.6466 0 64 14.3507 64 31.9941C64 49.6375 49.6466 63.9882 32 63.9882V64ZM32 3.04481C16.0295 3.04481 3.03356 16.0384 3.03356 32.0059C3.03356 47.9734 16.0295 60.967 32 60.967C47.9705 60.967 60.9664 47.9734 60.9664 32.0059C60.9664 16.0384 47.9705 3.04481 32 3.04481ZM42.7887 19.0242C41.4784 19.0242 40.4161 20.0863 40.4161 21.3963C40.4161 22.7063 41.4784 23.7684 42.7887 23.7684C44.0989 23.7684 45.1612 22.7063 45.1612 21.3963C45.1612 20.0863 44.0989 19.0242 42.7887 19.0242ZM32.2597 22.0572C26.7709 22.0572 22.3091 26.5182 22.3091 32.0059C22.3091 37.4936 26.7709 41.9546 32.2597 41.9546C37.7484 41.9546 42.2103 37.4936 42.2103 32.0059C42.2103 26.5182 37.7484 22.0572 32.2597 22.0572ZM32.2597 38.3788C28.7422 38.3788 25.8856 35.5228 25.8856 32.0059C25.8856 28.489 28.7422 25.633 32.2597 25.633C35.7772 25.633 38.6337 28.489 38.6337 32.0059C38.6337 35.5228 35.7772 38.3788 32.2597 38.3788ZM52.3379 23.7448C52.3379 17.0415 46.9082 11.6128 40.2036 11.6128H24.1859C17.4814 11.6128 12.0516 17.0415 12.0516 23.7448V39.7595C12.0516 46.4628 17.4814 51.8916 24.1859 51.8916H40.2036C46.9082 51.8916 52.3379 46.4628 52.3379 39.7595V23.7448ZM48.5371 39.7595C48.5371 44.3622 44.8071 48.0915 40.2036 48.0915H24.1859C19.5824 48.0915 15.8524 44.3622 15.8524 39.7595V23.7448C15.8524 19.1422 19.5824 15.4129 24.1859 15.4129H40.2036C44.8071 15.4129 48.5371 19.1422 48.5371 23.7448V39.7595Z" fill="#4E4E4E"/>
</svg>
